<?xml version="1.0" encoding="UTF-8" standalone="no"?>
<svg
   xmlns:dc="http://purl.org/dc/elements/1.1/"
   xmlns:cc="http://creativecommons.org/ns#"
   xmlns:rdf="http://www.w3.org/1999/02/22-rdf-syntax-ns#"
   xmlns:svg="http://www.w3.org/2000/svg"
   xmlns="http://www.w3.org/2000/svg"
   viewBox="0 0 4086.9868 2666.6667"
   height="2666.6667"
   width="4086.9868"
   xml:space="preserve"
   id="svg2"
   version="1.1"><metadata
     id="metadata8"><rdf:RDF><cc:Work
         rdf:about=""><dc:format>image/svg+xml</dc:format><dc:type
           rdf:resource="http://purl.org/dc/dcmitype/StillImage" /></cc:Work></rdf:RDF></metadata><defs
     id="defs6"><clipPath
       id="clipPath44"
       clipPathUnits="userSpaceOnUse"><path
         id="path42"
         d="M 29058.5,5624.3 H 9271.69 c -68.71,244.1 -105.16,501.7 -105.16,767.7 0,755 294.47,1441.3 774.78,1950.4 V 6494.9 c 0,-308.8 250.29,-559.1 559.09,-559.1 h 8374.4 c 308.8,0 559.1,250.3 559.1,559.1 v 5452.6 c 0,126.6 -42.1,243.4 -113,337.2 1628.5,-225.4 3046.3,-1110.2 3975.6,-2375.9 554.8,293.9 1187.4,460.6 1859,460.6 2196.6,0 3977.5,-1780.9 3977.5,-3977.4 0,-262.6 -25.4,-519.3 -74.5,-767.7" /></clipPath><linearGradient
       id="linearGradient54"
       spreadMethod="pad"
       gradientTransform="matrix(19966.4,0,0,-19966.4,9166.53,8982.7)"
       gradientUnits="userSpaceOnUse"
       y2="0"
       x2="1"
       y1="0"
       x1="0"><stop
         id="stop48"
         offset="0"
         style="stop-opacity:1;stop-color:#6b9e34" /><stop
         id="stop50"
         offset="0.135121"
         style="stop-opacity:1;stop-color:#61933c" /><stop
         id="stop52"
         offset="1"
         style="stop-opacity:1;stop-color:#1f4a6e" /></linearGradient><clipPath
       id="clipPath64"
       clipPathUnits="userSpaceOnUse"><path
         id="path62"
         d="M 7526.88,4536.3 H 2255.8 c -212.43,0 -384.63,172.2 -384.63,384.6 v 624.3 c 0,212.5 172.2,384.7 384.63,384.7 h 5271.08 z" /></clipPath><linearGradient
       id="linearGradient70"
       spreadMethod="pad"
       gradientTransform="matrix(-6.53e-5,1494.63,1494.63,6.53e-5,4699.03,4659.9)"
       gradientUnits="userSpaceOnUse"
       y2="0"
       x2="1"
       y1="0"
       x1="0"><stop
         id="stop66"
         offset="0"
         style="stop-opacity:1;stop-color:#ff9f55" /><stop
         id="stop68"
         offset="1"
         style="stop-opacity:1;stop-color:#ffd255" /></linearGradient><clipPath
       id="clipPath84"
       clipPathUnits="userSpaceOnUse"><path
         id="path82"
         d="M 7773.13,5929.9 H 2002.7 c -266.9,0 -483.27,216.4 -483.27,483.3 v 654.1 c 0,267 216.37,483.3 483.27,483.3 h 5770.43 z" /></clipPath><linearGradient
       id="linearGradient90"
       spreadMethod="pad"
       gradientTransform="matrix(-9.04e-5,-2069.03,-2069.03,9.04e-5,4646.28,8029.9)"
       gradientUnits="userSpaceOnUse"
       y2="0"
       x2="1"
       y1="0"
       x1="0"><stop
         id="stop86"
         offset="0"
         style="stop-opacity:1;stop-color:#40d5e6" /><stop
         id="stop88"
         offset="1"
         style="stop-opacity:1;stop-color:#5577ff" /></linearGradient><clipPath
       id="clipPath104"
       clipPathUnits="userSpaceOnUse"><path
         id="path102"
         d="M 3615.81,7550.9 H 8001.6 c 288.85,0 523,234.2 523,523 v 941 c 0,288.8 -234.15,523 -523,523 H 3615.81 Z" /></clipPath><linearGradient
       id="linearGradient110"
       spreadMethod="pad"
       gradientTransform="matrix(-6.76e-5,1546.87,1546.87,6.76e-5,6070.21,7930.6)"
       gradientUnits="userSpaceOnUse"
       y2="0"
       x2="1"
       y1="0"
       x1="0"><stop
         id="stop106"
         offset="0"
         style="stop-opacity:1;stop-color:#ff9f55" /><stop
         id="stop108"
         offset="1"
         style="stop-opacity:1;stop-color:#ffd255" /></linearGradient><clipPath
       id="clipPath124"
       clipPathUnits="userSpaceOnUse"><path
         id="path122"
         d="m 6900.02,9538.4 h -4650.5 c -303.67,0 -549.83,246.2 -549.83,549.8 v 887.4 c 0,303.6 246.16,549.8 549.83,549.8 h 4650.5 z" /></clipPath><linearGradient
       id="linearGradient130"
       spreadMethod="pad"
       gradientTransform="matrix(-7.6e-5,-1737.8,-1737.8,7.6e-5,4299.86,12089.6)"
       gradientUnits="userSpaceOnUse"
       y2="0"
       x2="1"
       y1="0"
       x1="0"><stop
         id="stop126"
         offset="0"
         style="stop-opacity:1;stop-color:#40d5e6" /><stop
         id="stop128"
         offset="1"
         style="stop-opacity:1;stop-color:#5577ff" /></linearGradient><clipPath
       id="clipPath144"
       clipPathUnits="userSpaceOnUse"><path
         id="path142"
         d="M 8211.68,11525.9 H 3352.62 c -188.48,0 -341.27,152.8 -341.27,341.3 v 821.1 c 0,188.5 152.79,341.3 341.27,341.3 h 4859.06 z" /></clipPath><linearGradient
       id="linearGradient150"
       spreadMethod="pad"
       gradientTransform="matrix(-6.08e-5,-1389.97,-1389.97,6.08e-5,5611.52,12946.5)"
       gradientUnits="userSpaceOnUse"
       y2="0"
       x2="1"
       y1="0"
       x1="0"><stop
         id="stop146"
         offset="0"
         style="stop-opacity:1;stop-color:#40d5e6" /><stop
         id="stop148"
         offset="1"
         style="stop-opacity:1;stop-color:#5577ff" /></linearGradient><clipPath
       id="clipPath164"
       clipPathUnits="userSpaceOnUse"><path
         id="path162"
         d="m 21437.1,6570.2 h 4206.7 c 151.9,0 275,123.1 275,275 v 940.9 c 0,151.9 -123.1,275 -275,275 h -4206.7 z" /></clipPath><linearGradient
       id="linearGradient172"
       spreadMethod="pad"
       gradientTransform="matrix(2964.63,-2.592e-4,2.592e-4,2964.63,22463.6,7315.6)"
       gradientUnits="userSpaceOnUse"
       y2="0"
       x2="1"
       y1="0"
       x1="0"><stop
         id="stop168"
         offset="0"
         style="stop-opacity:1;stop-color:#ff9f55" /><stop
         id="stop170"
         offset="1"
         style="stop-opacity:1;stop-color:#ffd255" /></linearGradient><clipPath
       id="clipPath182"
       clipPathUnits="userSpaceOnUse"><path
         id="path180"
         d="m 20109.9,4336.6 h 5126.7 c 109.1,0 197.6,88.5 197.6,197.6 v 625.1 c 0,109.1 -88.5,197.6 -197.6,197.6 h -5126.7 z" /></clipPath><linearGradient
       id="linearGradient190"
       spreadMethod="pad"
       gradientTransform="matrix(2935.91,-2.567e-4,2.567e-4,2935.91,21070.9,4846.7)"
       gradientUnits="userSpaceOnUse"
       y2="0"
       x2="1"
       y1="0"
       x1="0"><stop
         id="stop186"
         offset="0"
         style="stop-opacity:1;stop-color:#ff9f55" /><stop
         id="stop188"
         offset="1"
         style="stop-opacity:1;stop-color:#ffd255" /></linearGradient><clipPath
       id="clipPath216"
       clipPathUnits="userSpaceOnUse"><path
         id="path214"
         d="m 22345.6,5356.9 h 4130.5 c 194,0 351.2,157.3 351.2,351.3 v 510.7 c 0,194 -157.2,351.2 -351.2,351.2 h -4130.5 z" /></clipPath><linearGradient
       id="linearGradient224"
       spreadMethod="pad"
       gradientTransform="matrix(-5599.79,0,0,-5599.79,27585.9,5963.5)"
       gradientUnits="userSpaceOnUse"
       y2="0"
       x2="1"
       y1="0"
       x1="0"><stop
         id="stop220"
         offset="0"
         style="stop-opacity:1;stop-color:#609ff0" /><stop
         id="stop222"
         offset="1"
         style="stop-opacity:1;stop-color:#5a3f9e" /></linearGradient><clipPath
       id="clipPath274"
       clipPathUnits="userSpaceOnUse"><path
         id="path272"
         d="m 14070,13266.1 c -442.7,0 -801.5,358.9 -801.5,801.6 0,442.7 358.8,801.5 801.5,801.5 442.7,0 801.6,-358.8 801.6,-801.5 0,-442.7 -358.9,-801.6 -801.6,-801.6 z m 1043.2,1071.8 c -25.4,98.2 -64.3,190.9 -114.5,276.1 l 116.5,175.4 -161.7,161.7 -161.8,161.8 -175.3,-116.6 c -85.2,50.3 -177.9,89.2 -276.1,114.5 l -41.5,206.3 h -228.8 -228.7 l -41.5,-206.3 c -98.2,-25.3 -190.9,-64.2 -276.2,-114.5 l -175.3,116.6 -161.7,-161.8 -161.8,-161.7 116.6,-175.4 c -50.3,-85.2 -89.2,-177.9 -114.5,-276.1 l -206.3,-41.5 v -228.7 -228.8 l 206.3,-41.5 c 25.3,-98.2 64.2,-190.9 114.5,-276.1 l -116.6,-175.4 161.8,-161.7 161.7,-161.8 175.3,116.6 c 85.3,-50.2 178,-89.1 276.2,-114.5 l 41.5,-206.2 h 228.7 228.8 l 41.5,206.2 c 98.2,25.4 190.9,64.3 276.1,114.5 l 175.3,-116.6 161.8,161.8 161.7,161.7 -116.5,175.4 c 50.2,85.2 89.1,177.9 114.5,276.1 l 206.2,41.5 v 228.8 228.7 z" /></clipPath><linearGradient
       id="linearGradient280"
       spreadMethod="pad"
       gradientTransform="matrix(2498.83,0,0,-2498.83,12820.6,14067.7)"
       gradientUnits="userSpaceOnUse"
       y2="0"
       x2="1"
       y1="0"
       x1="0"><stop
         id="stop276"
         offset="0"
         style="stop-opacity:1;stop-color:#ff9f55" /><stop
         id="stop278"
         offset="1"
         style="stop-opacity:1;stop-color:#ffd255" /></linearGradient><clipPath
       id="clipPath290"
       clipPathUnits="userSpaceOnUse"><path
         id="path288"
         d="m 15973.7,14776 c -202.9,0 -367.5,164.5 -367.5,367.4 0,203 164.6,367.5 367.5,367.5 203,0 367.5,-164.5 367.5,-367.5 0,-202.9 -164.5,-367.4 -367.5,-367.4 z m 478.2,491.3 c -11.6,45 -29.4,87.5 -52.5,126.6 l 53.5,80.4 -74.2,74.2 -74.1,74.1 -80.4,-53.4 c -39.1,23 -81.6,40.8 -126.6,52.5 l -19,94.5 h -104.9 -104.9 l -19,-94.5 c -45,-11.7 -87.5,-29.5 -126.6,-52.5 l -80.4,53.4 -74.1,-74.1 -74.2,-74.2 53.5,-80.4 c -23.1,-39.1 -40.9,-81.6 -52.5,-126.6 l -94.6,-19 v -104.9 -104.8 l 94.6,-19.1 c 11.6,-45 29.4,-87.5 52.5,-126.6 l -53.5,-80.3 74.2,-74.2 74.1,-74.1 80.4,53.4 c 39.1,-23 81.6,-40.9 126.6,-52.5 l 19,-94.6 h 104.9 104.9 l 19,94.6 c 45,11.6 87.5,29.5 126.6,52.5 l 80.4,-53.4 74.1,74.1 74.2,74.2 -53.5,80.3 c 23.1,39.1 40.9,81.6 52.5,126.6 l 94.6,19.1 v 104.8 104.9 z" /></clipPath><linearGradient
       id="linearGradient298"
       spreadMethod="pad"
       gradientTransform="matrix(1145.57,0,0,-1145.57,15400.9,15143.4)"
       gradientUnits="userSpaceOnUse"
       y2="0"
       x2="1"
       y1="0"
       x1="0"><stop
         id="stop294"
         offset="0"
         style="stop-opacity:1;stop-color:#ff9f55" /><stop
         id="stop296"
         offset="1"
         style="stop-opacity:1;stop-color:#ffd255" /></linearGradient><clipPath
       id="clipPath308"
       clipPathUnits="userSpaceOnUse"><path
         id="path306"
         d="m 9941.31,8342.4 v 3605.1 c 0,308.8 250.29,559.1 559.09,559.1 h 8374.4 c 182.2,0 344,-87.1 446.1,-221.9 -268.9,37.2 -543.5,56.4 -822.7,56.4 -2351.3,0 -4384,-1364.5 -5349.9,-3344.7 -348.7,152.8 -733.7,238.1 -1138.9,238.1 -815,0 -1549.7,-342.8 -2068.09,-892.1" /></clipPath><clipPath
       id="clipPath320"
       clipPathUnits="userSpaceOnUse"><path
         id="path318"
         d="m 18874.8,5935.8 h -8374.4 c -308.8,0 -559.09,250.3 -559.09,559.1 v 1847.5 c 518.39,549.3 1253.09,892.1 2068.09,892.1 405.2,0 790.2,-85.3 1138.9,-238.1 965.9,1980.2 2998.6,3344.7 5349.9,3344.7 279.2,0 553.8,-19.2 822.7,-56.4 70.9,-93.8 113,-210.6 113,-337.2 V 6494.9 c 0,-308.8 -250.3,-559.1 -559.1,-559.1" /></clipPath><linearGradient
       id="linearGradient330"
       spreadMethod="pad"
       gradientTransform="matrix(19966.4,0,0,-19966.4,9166.53,8982.7)"
       gradientUnits="userSpaceOnUse"
       y2="0"
       x2="1"
       y1="0"
       x1="0"><stop
         id="stop324"
         offset="0"
         style="stop-opacity:1;stop-color:#ffffff" /><stop
         id="stop326"
         offset="0.135121"
         style="stop-opacity:1;stop-color:#ffffff" /><stop
         id="stop328"
         offset="1"
         style="stop-opacity:1;stop-color:#ffffff" /></linearGradient></defs><g
     transform="matrix(1.3333333,0,0,-1.3333333,0,2666.6667)"
     id="g10"><g
       transform="scale(0.1)"
       id="g12"><g
         transform="scale(1.88049)"
         id="g14"><path
           id="path16"
           style="fill:none;fill-opacity:1;fill-rule:nonzero;stroke:none"
           d="M 16300.2,10635.5 V 0 H 0 v 10635.5 h 16300.2" /></g><g
         transform="scale(1.60218)"
         id="g18"><path
           id="path20"
           style="fill:#bbd070;fill-opacity:1;fill-rule:nonzero;stroke:none"
           d="m 16300,6318.21 c 0,0 -1703.7,732.16 -2361.7,-260.14 -658,-992.34 263.8,-930.55 263.8,-930.55 0,0 51.2,-458.75 921.4,627.02 410.2,511.76 1176.5,563.67 1176.5,563.67" /></g><g
         transform="scale(1.63139)"
         id="g22"><path
           id="path24"
           style="fill:#97a43c;fill-opacity:1;fill-rule:nonzero;stroke:none"
           d="m 16300,8983.13 c 0,0 -1485.3,460.65 -2463.2,-1423.28 -977.9,-1883.94 -1857,-2032.83 -1857,-2032.83 0,0 3359.3,-602.8 4320.2,3456.11" /></g><g
         transform="scale(1.44597)"
         id="g26"><path
           id="path28"
           style="fill:#48753a;fill-opacity:1;fill-rule:nonzero;stroke:none"
           d="m 14212.8,6113.06 c 146.7,-706.65 1764.2,655.96 1923.5,1877.95 159.3,1221.98 -157.9,2118.59 163.7,2902.49 0,0 -2809.8,-1300.65 -2087.2,-4780.44" /></g><g
         transform="scale(1.37442)"
         id="g30"><path
           id="path32"
           style="fill:#ffffff;fill-opacity:1;fill-rule:nonzero;stroke:none"
           d="m 14492.3,10155.3 c 70.1,0 137.2,-10.3 199,-29.2 81.5,197.7 284,337.8 521,337.8 263.4,0 484.3,-173.1 543.6,-406.1 45.5,17.2 95.1,26.7 147.1,26.7 219.3,0 397,-168.95 397,-377.38 h -580.9 -213.2 -454.3 -346.2 -772.5 c 0,247.52 250.4,448.18 559.4,448.18" /></g><g
         transform="scale(1.63396)"
         id="g34"><path
           id="path36"
           style="fill:#ffffff;fill-opacity:1;fill-rule:nonzero;stroke:none"
           d="m 15140.5,7288.21 c 45,0 88.1,-6.62 127.7,-18.75 52.3,126.84 182.2,216.66 334.2,216.66 168.9,0 310.6,-111 348.6,-260.45 29.2,11.02 61,17.11 94.3,17.11 140.7,0 254.7,-108.36 254.7,-242.04 h -372.5 -136.8 -291.4 -222 -495.5 c 0,158.76 160.6,287.47 358.7,287.47" /></g><g
         id="g38"><g
           clip-path="url(#clipPath44)"
           id="g40"><g
             transform="scale(1.7873)"
             id="g46"><path
               id="path56"
               style="fill:url(#linearGradient54);fill-opacity:1;fill-rule:nonzero;stroke:none"
               d="M 16258.3,3146.81 H 13650.9 11890.8 8250.88 7048.73 5187.54 c -38.45,136.58 -58.84,280.71 -58.84,429.53 0,422.43 164.76,806.42 433.49,1091.26 V 3633.92 c 0,-172.78 140.04,-312.82 312.82,-312.82 h 4685.49 c 172.8,0 312.8,140.04 312.8,312.82 v 3050.75 c 0,70.84 -23.5,136.19 -63.2,188.63 911.2,-126.09 1704.4,-621.13 2224.4,-1329.3 310.4,164.46 664.3,257.73 1040.1,257.73 1229,0 2225.4,-996.44 2225.4,-2225.39 0,-146.92 -14.2,-290.55 -41.7,-429.53" /></g></g></g><g
         id="g58"><g
           clip-path="url(#clipPath64)"
           id="g60"><path
             id="path72"
             style="fill:url(#linearGradient70);fill-opacity:1;fill-rule:nonzero;stroke:none"
             d="M 7526.88,4536.3 H 2255.8 c -212.43,0 -384.63,172.2 -384.63,384.6 v 624.3 c 0,212.5 172.2,384.7 384.63,384.7 H 7526.88 V 4536.3" /></g></g><path
         id="path74"
         style="fill:#ff9f55;fill-opacity:1;fill-rule:nonzero;stroke:none"
         d="M 8432.16,5786.4 V 4679.6 h 92.44 V 4536.2 H 4703.94 c -212.42,0 -384.62,172.2 -384.62,384.6 v 624.4 c 0,212.4 172.2,384.6 384.62,384.6 H 8524.6 v -143.4 h -92.44" /><path
         id="path76"
         style="fill:#eff7fe;fill-opacity:1;fill-rule:nonzero;stroke:none"
         d="M 8432.07,4679.7 H 4985.96 c -212.42,0 -384.63,172.2 -384.63,384.6 v 337.5 c 0,212.4 172.21,384.6 384.63,384.6 H 8432.07 V 4679.7" /><g
         id="g78"><g
           clip-path="url(#clipPath84)"
           id="g80"><path
             id="path92"
             style="fill:url(#linearGradient90);fill-opacity:1;fill-rule:nonzero;stroke:none"
             d="M 7773.13,5929.9 H 2002.7 c -266.9,0 -483.27,216.4 -483.27,483.3 v 654.1 c 0,267 216.37,483.3 483.27,483.3 H 7773.13 V 5929.9" /></g></g><path
         id="path94"
         style="fill:#5284fc;fill-opacity:1;fill-rule:nonzero;stroke:none"
         d="m 8796.73,7383.7 v -1287 h 79.62 V 5929.8 H 5737.91 c -266.9,0 -483.27,216.4 -483.27,483.3 v 654.2 c 0,266.9 216.37,483.3 483.27,483.3 h 3138.44 v -166.9 h -79.62" /><path
         id="path96"
         style="fill:#eff7fe;fill-opacity:1;fill-rule:nonzero;stroke:none"
         d="M 8796.66,6096.7 H 5980.79 c -266.9,0 -483.27,216.4 -483.27,483.3 v 320.5 c 0,266.9 216.37,483.3 483.27,483.3 H 8796.66 V 6096.7" /><g
         id="g98"><g
           clip-path="url(#clipPath104)"
           id="g100"><path
             id="path112"
             style="fill:url(#linearGradient110);fill-opacity:1;fill-rule:nonzero;stroke:none"
             d="M 3615.81,7550.9 H 8001.6 c 288.85,0 523,234.2 523,523 v 941 c 0,288.8 -234.15,523 -523,523 H 3615.81 v -1987" /></g></g><path
         id="path114"
         style="fill:#ff9f55;fill-opacity:1;fill-rule:nonzero;stroke:none"
         d="M 2830.09,9333.3 V 7755.4 h -80.24 v -204.6 h 3126.91 c 288.85,0 523.01,234.2 523.01,523 v 941 c 0,288.9 -234.16,523.1 -523.01,523.1 H 2749.85 v -204.6 h 80.24" /><path
         id="path116"
         style="fill:#eff7fe;fill-opacity:1;fill-rule:nonzero;stroke:none"
         d="m 2830.17,7755.4 h 2765.15 c 287.11,0 519.87,232.8 519.87,519.9 v 538.2 c 0,287.1 -232.76,519.9 -519.87,519.9 H 2830.17 v -1578" /><g
         id="g118"><g
           clip-path="url(#clipPath124)"
           id="g120"><path
             id="path132"
             style="fill:url(#linearGradient130);fill-opacity:1;fill-rule:nonzero;stroke:none"
             d="m 6900.02,9538.4 h -4650.5 c -303.67,0 -549.83,246.2 -549.83,549.8 v 887.4 c 0,303.6 246.16,549.8 549.83,549.8 h 4650.5 v -1987" /></g></g><path
         id="path134"
         style="fill:#5284fc;fill-opacity:1;fill-rule:nonzero;stroke:none"
         d="m 7732.4,11320.8 v -1578 h 85.01 V 9538.3 H 4500.54 c -303.66,0 -549.82,246.1 -549.82,549.8 v 887.4 c 0,303.6 246.16,549.8 549.82,549.8 h 3316.87 v -204.5 h -85.01" /><path
         id="path136"
         style="fill:#eff7fe;fill-opacity:1;fill-rule:nonzero;stroke:none"
         d="M 7732.32,9742.9 H 4786.86 c -302.39,0 -547.53,245.1 -547.53,547.5 v 482.9 c 0,302.4 245.14,547.6 547.53,547.6 h 2945.46 v -1578" /><g
         id="g138"><g
           clip-path="url(#clipPath144)"
           id="g140"><path
             id="path152"
             style="fill:url(#linearGradient150);fill-opacity:1;fill-rule:nonzero;stroke:none"
             d="M 8211.68,11525.9 H 3352.62 c -188.48,0 -341.27,152.8 -341.27,341.3 v 821.1 c 0,188.5 152.79,341.3 341.27,341.3 h 4859.06 v -1503.7" /></g></g><path
         id="path154"
         style="fill:#5284fc;fill-opacity:1;fill-rule:nonzero;stroke:none"
         d="m 9044.06,12874.8 v -1194.2 h 85 v -154.8 H 5603.65 c -188.48,0 -341.27,152.8 -341.27,341.3 v 821.2 c 0,188.5 152.79,341.3 341.27,341.3 h 3525.41 v -154.8 h -85" /><path
         id="path156"
         style="fill:#eff7fe;fill-opacity:1;fill-rule:nonzero;stroke:none"
         d="M 9043.98,11680.7 H 5862.96 c -188.48,0 -341.28,152.8 -341.28,341.3 v 511.6 c 0,188.5 152.8,341.2 341.28,341.2 h 3181.02 v -1194.1" /><g
         id="g158"><g
           clip-path="url(#clipPath164)"
           id="g160"><g
             transform="scale(1.59011)"
             id="g166"><path
               id="path174"
               style="fill:url(#linearGradient172);fill-opacity:1;fill-rule:nonzero;stroke:none"
               d="m 13481.5,4131.91 h 2645.6 c 95.5,0 172.9,77.42 172.9,172.95 v 591.72 c 0,95.53 -77.4,172.94 -172.9,172.94 h -2645.6 v -937.61" /></g></g></g><g
         id="g176"><g
           clip-path="url(#clipPath182)"
           id="g178"><g
             transform="scale(1.56038)"
             id="g184"><path
               id="path192"
               style="fill:url(#linearGradient190);fill-opacity:1;fill-rule:nonzero;stroke:none"
               d="m 12887.8,2779.2 h 3285.6 c 69.9,0 126.6,56.71 126.6,126.63 v 400.61 c 0,69.92 -56.7,126.63 -126.6,126.63 H 12887.8 V 2779.2" /></g></g></g><g
         transform="scale(1.34786)"
         id="g194"><path
           id="path196"
           style="fill:#f08533;fill-opacity:1;fill-rule:nonzero;stroke:none"
           d="m 14514.6,3891.64 v -591.53 h -100.4 v -82.72 h 1784.5 c 55.9,0 101.3,45.32 101.3,101.27 v 554.35 c 0,55.94 -45.4,101.28 -101.3,101.28 h -1784.5 v -82.65 h 100.4" /></g><g
         transform="scale(1.34039)"
         id="g198"><path
           id="path200"
           style="fill:#fae6de;fill-opacity:1;fill-rule:nonzero;stroke:none"
           d="m 14595.6,3318.52 h 1606.5 c 54.1,0 97.9,43.87 97.9,97.96 v 398.91 c 0,54.09 -43.8,97.88 -97.9,97.88 h -1606.5 v -594.75" /></g><g
         transform="scale(1.47109)"
         id="g202"><path
           id="path204"
           style="fill:#f08533;fill-opacity:1;fill-rule:nonzero;stroke:none"
           d="m 14084.6,5375.33 v -804.85 h -49.9 v -104.34 h 2072.1 c 106.7,0 193.2,86.53 193.2,193.19 v 627.15 c 0,106.66 -86.5,193.12 -193.2,193.12 h -2072.1 v -104.27 h 49.9" /></g><g
         transform="scale(1.46153)"
         id="g206"><path
           id="path208"
           style="fill:#fae6de;fill-opacity:1;fill-rule:nonzero;stroke:none"
           d="m 14176.8,4600.46 h 1928.7 c 107.4,0 194.5,87.03 194.5,194.39 v 421.27 c 0,107.35 -87.1,194.38 -194.5,194.38 h -1928.7 v -810.04" /></g><g
         id="g210"><g
           clip-path="url(#clipPath216)"
           id="g212"><g
             transform="scale(1.64585)"
             id="g218"><path
               id="path226"
               style="fill:url(#linearGradient224);fill-opacity:1;fill-rule:nonzero;stroke:none"
               d="m 13577,3254.8 h 2509.6 c 117.9,0 213.4,95.57 213.4,213.44 v 310.3 c 0,117.88 -95.5,213.39 -213.4,213.39 H 13577 V 3254.8" /></g></g></g><g
         transform="scale(1.52683)"
         id="g228"><path
           id="path230"
           style="fill:#495da1;fill-opacity:1;fill-rule:nonzero;stroke:none"
           d="m 14165.5,4221.28 v -631.04 h -48.1 v -81.8 h 1952.5 c 127.1,0 230.1,103.02 230.1,230.08 V 4073 c 0,127.06 -103,230.09 -230.1,230.09 h -1952.5 v -81.81 h 48.1" /></g><g
         transform="scale(1.51785)"
         id="g232"><path
           id="path234"
           style="fill:#fae6de;fill-opacity:1;fill-rule:nonzero;stroke:none"
           d="m 14249.3,3611.55 h 1819.3 c 127.8,0 231.4,103.57 231.4,231.38 v 171.95 c 0,127.81 -103.6,231.45 -231.4,231.45 h -1819.3 v -634.78" /></g><g
         transform="scale(1.42934)"
         id="g236"><path
           id="path238"
           style="fill:#deccc5;fill-opacity:1;fill-rule:nonzero;stroke:none"
           d="m 15472.5,4273.03 h 827.5 v 21.27 h -827.5 v -21.27" /></g><g
         transform="scale(1.46336)"
         id="g240"><path
           id="path242"
           style="fill:#deccc5;fill-opacity:1;fill-rule:nonzero;stroke:none"
           d="m 15436.9,4110.42 h 863.1 v 20.77 h -863.1 v -20.77" /></g><g
         transform="scale(1.29025)"
         id="g244"><path
           id="path246"
           style="fill:#deccc5;fill-opacity:1;fill-rule:nonzero;stroke:none"
           d="m 15383.3,3881.96 h 916.7 v 23.56 h -916.7 v -23.56" /></g><g
         transform="scale(1.32427)"
         id="g248"><path
           id="path250"
           style="fill:#deccc5;fill-opacity:1;fill-rule:nonzero;stroke:none"
           d="m 15346.2,3712.31 h 953.8 v 22.96 h -953.8 v -22.96" /></g><g
         transform="scale(1.33202)"
         id="g252"><path
           id="path254"
           style="fill:#deccc5;fill-opacity:1;fill-rule:nonzero;stroke:none"
           d="m 15907.7,3627.2 h 392.3 v 22.9 h -392.3 v -22.9" /></g><g
         transform="scale(1.43347)"
         id="g256"><path
           id="path258"
           style="fill:#deccc5;fill-opacity:1;fill-rule:nonzero;stroke:none"
           d="m 15418.9,4936.68 h 881.1 v 21.28 h -881.1 v -21.28" /></g><g
         transform="scale(1.38166)"
         id="g260"><path
           id="path262"
           style="fill:#deccc5;fill-opacity:1;fill-rule:nonzero;stroke:none"
           d="m 15921.8,5060.57 h 378.2 v 22.07 h -378.2 v -22.07" /></g><g
         transform="scale(1.36525)"
         id="g264"><path
           id="path266"
           style="fill:#eea886;fill-opacity:1;fill-rule:nonzero;stroke:none"
           d="m 16250.6,5058.63 c 0,11.13 12,28.27 30.6,13.55 18.8,-14.8 -4.3,-68.49 -19.4,-63.73 -15.2,4.77 -11.2,38.6 -11.2,50.18" /></g><g
         id="g268"><g
           clip-path="url(#clipPath274)"
           id="g270"><path
             id="path282"
             style="fill:url(#linearGradient280);fill-opacity:1;fill-rule:nonzero;stroke:none"
             d="m 14070,13266.1 c -442.7,0 -801.5,358.9 -801.5,801.6 0,442.7 358.8,801.5 801.5,801.5 442.7,0 801.6,-358.8 801.6,-801.5 0,-442.7 -358.9,-801.6 -801.6,-801.6 z m 1043.2,1071.8 c -25.4,98.2 -64.3,190.9 -114.5,276.1 l 116.5,175.4 -161.7,161.7 -161.8,161.8 -175.3,-116.6 c -85.2,50.3 -177.9,89.2 -276.1,114.5 l -41.5,206.3 h -228.8 -228.7 l -41.5,-206.3 c -98.2,-25.3 -190.9,-64.2 -276.2,-114.5 l -175.3,116.6 -161.7,-161.8 -161.8,-161.7 116.6,-175.4 c -50.3,-85.2 -89.2,-177.9 -114.5,-276.1 l -206.3,-41.5 v -228.7 -228.8 l 206.3,-41.5 c 25.3,-98.2 64.2,-190.9 114.5,-276.1 l -116.6,-175.4 161.8,-161.7 161.7,-161.8 175.3,116.6 c 85.3,-50.2 178,-89.1 276.2,-114.5 l 41.5,-206.2 h 228.7 228.8 l 41.5,206.2 c 98.2,25.4 190.9,64.3 276.1,114.5 l 175.3,-116.6 161.8,161.8 161.7,161.7 -116.5,175.4 c 50.2,85.2 89.1,177.9 114.5,276.1 l 206.2,41.5 v 228.8 228.7 l -206.2,41.5" /></g></g><g
         id="g284"><g
           clip-path="url(#clipPath290)"
           id="g286"><g
             transform="scale(1.01512)"
             id="g292"><path
               id="path300"
               style="fill:url(#linearGradient298);fill-opacity:1;fill-rule:nonzero;stroke:none"
               d="m 15735.7,14555.9 c -199.8,0 -362,162 -362,361.9 0,200 162.2,362 362,362 200,0 362.1,-162 362.1,-362 0,-199.9 -162.1,-361.9 -362.1,-361.9 z m 471.1,484 c -11.4,44.3 -29,86.2 -51.7,124.7 l 52.7,79.2 -73.1,73 -73,73.1 -79.2,-52.7 c -38.5,22.7 -80.4,40.3 -124.7,51.7 l -18.7,93.2 h -103.4 -103.3 l -18.7,-93.2 c -44.3,-11.4 -86.2,-29 -124.7,-51.7 l -79.2,52.7 -73,-73.1 -73.1,-73 52.7,-79.2 c -22.8,-38.5 -40.3,-80.4 -51.7,-124.7 l -93.2,-18.8 v -103.3 -103.3 l 93.2,-18.7 c 11.4,-44.3 28.9,-86.2 51.7,-124.7 l -52.7,-79.2 73.1,-73 73,-73.1 79.2,52.7 c 38.5,-22.7 80.4,-40.3 124.7,-51.8 l 18.7,-93.1 h 103.3 103.4 l 18.7,93.1 c 44.3,11.5 86.2,29.1 124.7,51.8 l 79.2,-52.7 73,73.1 73.1,73 -52.7,79.2 c 22.7,38.5 40.3,80.4 51.7,124.7 l 93.2,18.7 v 103.3 103.3 l -93.2,18.8" /></g></g></g><g
         id="g302"><g
           clip-path="url(#clipPath308)"
           id="g304"><g
             transform="scale(1.18533)"
             id="g310"><path
               id="path312"
               style="fill:#ffffff;fill-opacity:1;fill-rule:nonzero;stroke:none"
               d="M 8386.94,10551.2 H 16300 V 7038.03 H 8386.94" /></g></g></g><g
         id="g314"><g
           clip-path="url(#clipPath320)"
           id="g316"><g
             transform="scale(1.19226)"
             id="g322"><path
               id="path332"
               style="fill:url(#linearGradient330);fill-opacity:1;fill-rule:nonzero;stroke:none"
               d="M 15831.1,4978.6 H 8807.11 c -259,0 -468.93,209.93 -468.93,468.94 v 1549.57 c 434.79,460.72 1051.01,748.24 1734.62,748.24 339.8,0 662.7,-71.55 955.2,-199.7 810.1,1660.88 2515.1,2805.35 4487.2,2805.35 234.2,0 464.5,-16.1 690,-47.4 59.5,-78.6 94.8,-176.5 94.8,-282.7 V 5447.54 c 0,-259.01 -209.9,-468.94 -468.9,-468.94" /></g></g></g><path
         id="path334"
         style="fill:#e8e8e8;fill-opacity:1;fill-rule:nonzero;stroke:none"
         d="m 14726.4,5859.3 h -77.6 v 6720.6 h 77.6 V 5859.3" /><path
         id="path336"
         style="fill:#c1dbd1;fill-opacity:1;fill-rule:nonzero;stroke:none"
         d="m 14070,11682.4 h -3487.8 v 131.9 H 14070 v -131.9" /><path
         id="path338"
         style="fill:#c1dbd1;fill-opacity:1;fill-rule:nonzero;stroke:none"
         d="M 14070,11199.2 H 10582.2 V 11331 H 14070 v -131.8" /><path
         id="path340"
         style="fill:#c1dbd1;fill-opacity:1;fill-rule:nonzero;stroke:none"
         d="m 14070,10715.9 h -3487.8 v 131.8 H 14070 v -131.8" /><path
         id="path342"
         style="fill:#c1dbd1;fill-opacity:1;fill-rule:nonzero;stroke:none"
         d="m 14070,10232.7 h -3487.8 v 131.8 H 14070 v -131.8" /><path
         id="path344"
         style="fill:#c1dbd1;fill-opacity:1;fill-rule:nonzero;stroke:none"
         d="m 14070,9749.4 h -3487.8 v 131.8 H 14070 v -131.8" /><path
         id="path346"
         style="fill:#c1dbd1;fill-opacity:1;fill-rule:nonzero;stroke:none"
         d="M 14070,9266.2 H 10582.2 V 9398 H 14070 v -131.8" /><path
         id="path348"
         style="fill:#c1dbd1;fill-opacity:1;fill-rule:nonzero;stroke:none"
         d="m 14070,8782.9 h -3487.8 v 131.8 H 14070 v -131.8" /><path
         id="path350"
         style="fill:#c1dbd1;fill-opacity:1;fill-rule:nonzero;stroke:none"
         d="m 14070,8299.6 h -3487.8 v 131.9 H 14070 v -131.9" /><path
         id="path352"
         style="fill:#c1dbd1;fill-opacity:1;fill-rule:nonzero;stroke:none"
         d="m 14070,7816.4 h -3487.8 v 131.8 H 14070 v -131.8" /><path
         id="path354"
         style="fill:#c1dbd1;fill-opacity:1;fill-rule:nonzero;stroke:none"
         d="M 14070,7333.1 H 10582.2 V 7465 H 14070 v -131.9" /><path
         id="path356"
         style="fill:#c1dbd1;fill-opacity:1;fill-rule:nonzero;stroke:none"
         d="m 14070,6849.9 h -3487.8 v 131.8 H 14070 v -131.8" /><g
         transform="scale(1.15174)"
         id="g358"><path
           id="path360"
           style="fill:#c1dbd1;fill-opacity:1;fill-rule:nonzero;stroke:none"
           d="m 16300,10143.2 h -3028.3 v 114.5 H 16300 v -114.5" /></g><g
         transform="scale(1.15174)"
         id="g362"><path
           id="path364"
           style="fill:#c1dbd1;fill-opacity:1;fill-rule:nonzero;stroke:none"
           d="m 16300,9723.67 h -3028.3 v 114.47 H 16300 v -114.47" /></g><g
         transform="scale(1.15174)"
         id="g366"><path
           id="path368"
           style="fill:#c1dbd1;fill-opacity:1;fill-rule:nonzero;stroke:none"
           d="m 16300,9304.08 h -3028.3 v 114.47 H 16300 v -114.47" /></g><g
         transform="scale(1.15174)"
         id="g370"><path
           id="path372"
           style="fill:#c1dbd1;fill-opacity:1;fill-rule:nonzero;stroke:none"
           d="m 16300,8884.5 h -3028.3 v 114.47 H 16300 V 8884.5" /></g><g
         transform="scale(1.15174)"
         id="g374"><path
           id="path376"
           style="fill:#c1dbd1;fill-opacity:1;fill-rule:nonzero;stroke:none"
           d="m 16300,8464.91 h -3028.3 v 114.44 H 16300 v -114.44" /></g><g
         transform="scale(1.15174)"
         id="g378"><path
           id="path380"
           style="fill:#c1dbd1;fill-opacity:1;fill-rule:nonzero;stroke:none"
           d="m 16300,8045.37 h -3028.3 v 114.44 H 16300 v -114.44" /></g><g
         transform="scale(1.15174)"
         id="g382"><path
           id="path384"
           style="fill:#c1dbd1;fill-opacity:1;fill-rule:nonzero;stroke:none"
           d="m 16300,7625.75 h -3028.3 v 114.43 H 16300 v -114.43" /></g><g
         transform="scale(1.15174)"
         id="g386"><path
           id="path388"
           style="fill:#c1dbd1;fill-opacity:1;fill-rule:nonzero;stroke:none"
           d="m 16300,7206.13 h -3028.3 v 114.52 H 16300 v -114.52" /></g><g
         transform="scale(1.15174)"
         id="g390"><path
           id="path392"
           style="fill:#c1dbd1;fill-opacity:1;fill-rule:nonzero;stroke:none"
           d="m 16300,6786.59 h -3028.3 v 114.43 H 16300 v -114.43" /></g><g
         transform="scale(1.15174)"
         id="g394"><path
           id="path396"
           style="fill:#c1dbd1;fill-opacity:1;fill-rule:nonzero;stroke:none"
           d="m 16300,6366.96 h -3028.3 v 114.52 H 16300 v -114.52" /></g><g
         transform="scale(1.15174)"
         id="g398"><path
           id="path400"
           style="fill:#c1dbd1;fill-opacity:1;fill-rule:nonzero;stroke:none"
           d="m 16300,5947.43 h -3028.3 v 114.43 H 16300 v -114.43" /></g><g
         transform="scale(1.05798)"
         id="g402"><path
           id="path404"
           style="fill:#eea886;fill-opacity:1;fill-rule:nonzero;stroke:none"
           d="m 15758.7,10081.4 c 0,0 -50.1,87.7 29.3,322.7 76.8,227.2 342.9,206.6 427.4,61 84.6,-145.6 56,-236 -68.4,-400.4 -124.5,-164.37 -336.7,-58.4 -388.3,16.7" /></g><g
         transform="scale(1.07417)"
         id="g406"><path
           id="path408"
           style="fill:#eea886;fill-opacity:1;fill-rule:nonzero;stroke:none"
           d="m 16129.7,5947.5 c 0,0 13,-95.05 14.6,-109.3 1.6,-14.33 144.2,8.38 144.2,8.38 l 11.5,113.21 c 0,0 -152.5,1.11 -170.3,-12.29" /></g><g
         transform="scale(1.07661)"
         id="g410"><path
           id="path412"
           style="fill:#152b3d;fill-opacity:1;fill-rule:nonzero;stroke:none"
           d="m 16106.1,5837.01 c 0,0 -45.1,-57.22 -88.7,-82.11 -43.6,-24.9 -112.2,-34.74 -137.9,-60.56 -18.7,-18.58 -67.8,-98.74 113.2,-97.07 181.2,1.58 268.5,-11.33 287.9,19.42 19.4,30.65 -28.1,226.73 -28.1,226.73 0,0 -44.4,-12.54 -146.4,-6.41" /></g><g
         transform="scale(1.0091)"
         id="g414"><path
           id="path416"
           style="fill:#eea886;fill-opacity:1;fill-rule:nonzero;stroke:none"
           d="m 16118.7,6331 c 0,0 13.8,-101.18 15.5,-116.34 1.7,-15.26 153.5,8.92 153.5,8.92 l 12.3,120.5 c 0,0 -162.3,1.19 -181.3,-13.08" /></g><g
         transform="scale(1.01154)"
         id="g418"><path
           id="path420"
           style="fill:#152b3d;fill-opacity:1;fill-rule:nonzero;stroke:none"
           d="m 16093.7,6212.51 c 0,0 -48.1,-60.9 -94.4,-87.39 -46.4,-26.5 -217.2,-48.25 -244.6,-75.73 -19.9,-19.77 -52.8,-99.55 218.4,-92.04 192.6,5.24 285.7,-12.06 306.2,20.66 20.7,32.63 -29.8,241.32 -29.8,241.32 0,0 -59.8,-10.68 -155.8,-6.82" /></g><g
         transform="scale(1.07541)"
         id="g422"><path
           id="path424"
           style="fill:#323657;fill-opacity:1;fill-rule:nonzero;stroke:none"
           d="m 16063.1,8304.55 c 0,0 73,-226.89 63.4,-422.54 -9.7,-195.55 37.7,-409.52 57.1,-613.91 21.5,-227.72 110,-766.96 113.1,-888.77 3.3,-121.82 -13.6,-510.88 -13.6,-510.88 l -177,-4.27 c 0,0 -148.5,942.7 -187,1038.86 -38.5,96.14 -229.3,781.93 -235.7,858.83 -6.4,76.99 379.7,542.68 379.7,542.68" /></g><g
         transform="scale(1.05978)"
         id="g426"><path
           id="path428"
           style="fill:#323657;fill-opacity:1;fill-rule:nonzero;stroke:none"
           d="m 15555.8,8451.1 c 0,0 -109,-609 -122,-730.43 -13,-121.44 -21.7,-587.86 -28.2,-663.73 -6.5,-75.96 -43.4,-993.51 -78.1,-1106.26 h 200.2 c 0,0 205.4,667.02 205.4,982.56 0,315.63 136.2,686.08 224,894.34 87.8,208.25 288.9,213.15 342.9,599.46 0,0 -671.1,146.54 -744.2,24.06" /></g><g
         transform="scale(1.05068)"
         id="g430"><path
           id="path432"
           style="fill:#eea886;fill-opacity:1;fill-rule:nonzero;stroke:none"
           d="m 15941.3,10088.9 c 0,0 22.7,-66.2 0,-113.55 -22.8,-47.3 290.9,-18.91 290.9,-18.91 0,0 -14.1,97.76 26.9,178.16 40.9,80.4 -317.8,-45.7 -317.8,-45.7" /></g><g
         transform="scale(1.06072)"
         id="g434"><path
           id="path436"
           style="fill:#323657;fill-opacity:1;fill-rule:nonzero;stroke:none"
           d="m 16300,8369.52 c 0,0 -111.8,-114.83 -768,17.82 l 10,56.28 746,-28.09 12,-46.01" /></g><g
         transform="scale(1.09215)"
         id="g438"><path
           id="path440"
           style="fill:#eea886;fill-opacity:1;fill-rule:nonzero;stroke:none"
           d="m 15290.3,9581.84 c 0,0 -111.4,-11.38 -143.3,-17.45 -31.8,-6.06 -246.2,38.35 -290.2,42.9 -44,4.55 -231.5,133.04 -237.6,148.2 -6.1,15.17 -114.1,288.71 -120.1,347.81 -6.1,59.2 -105.3,28.7 -96.7,-12.1 15.9,-76.2 36.3,-261.33 47.5,-314.98 12.1,-57.93 44.5,-189.11 62.7,-205.25 18.1,-16.15 187,-144.59 352.3,-199.19 165.4,-54.6 289.8,-134.98 289.8,-134.98 h 814.8 c 0,0 316.9,452.97 323.6,521.22 6.9,68.26 -221.3,521.88 -266.8,578.78 -45.5,56.8 -111.3,-18.6 -111.3,-18.6 0,0 136.3,-400.02 154.5,-456.9 18.2,-56.88 -158.5,-306.76 -207.1,-307.53 -48.5,-0.75 -173.1,15.18 -228.5,17.45 -55.4,2.27 -113.7,26.54 -113.7,26.54 l -229.9,-15.92" /></g><g
         transform="scale(1.08479)"
         id="g442"><path
           id="path444"
           style="fill:#254380;fill-opacity:1;fill-rule:nonzero;stroke:none"
           d="m 15040.7,9342.24 c 0,0 100.4,-66.76 109.5,-181.26 9.2,-114.49 45.8,-295.45 64.1,-357.3 18.4,-61.86 -16,-510.79 -20.6,-542.78 -4.5,-32.08 634.8,-108.32 733,-32.08 0,0 27.4,419.07 38.9,538.17 11.4,119.1 66.4,407.73 84.7,446.63 18.3,38.95 240.5,350.6 249.7,391.67 0,0 -115,183.23 -197.5,185.52 0,0 -130.9,-153.47 -173.5,-160.33 -42.8,-6.87 -304.5,41.1 -304.5,41.49 0,0 -28.6,-38.9 -180.4,6.92 0,0 -180.9,-20.43 -210.3,-24.17 -35.7,-4.55 -283.3,31.08 -283.3,31.08 0,0 -99.3,-167.75 -81.9,-252.46 l 172.1,-91.1" /></g><path
         id="path446"
         style="fill:#eea886;fill-opacity:1;fill-rule:nonzero;stroke:none"
         d="m 15841.3,10995.5 c 0,0 -24.3,115.2 5,148.2 16.7,18.8 56.8,68.7 60.4,76 3.7,7.3 46.7,32 46.7,43.9 0,11.9 -42.1,26.6 -78.7,-7.3 -36.6,-33.9 -59.5,-41.2 -74.2,-37.5 -14.6,3.6 -35.6,125.4 -37.5,155.6 -1.8,30.2 -13.4,109.8 -32.3,104.3 -18.9,-5.5 -18,-40.3 -18,-40.3 0,0 -22,60.4 -36.6,48.5 -14.7,-11.9 -12.8,-41.2 -12.8,-41.2 0,0 -27.5,33.9 -34.8,9.2 -7.3,-24.7 0,-46.7 0,-46.7 0,0 -28.4,15.6 -30.2,-22.9 -1.8,-38.4 8.2,-151 28.4,-191.2 20.1,-40.3 95.5,-145.6 104.5,-186.8 8.9,-41.1 110.1,-11.8 110.1,-11.8" /><g
         transform="scale(1.07597)"
         id="g448"><path
           id="path450"
           style="fill:#eea886;fill-opacity:1;fill-rule:nonzero;stroke:none"
           d="m 16176.9,10407.1 c 0,0 -77,129.3 -103.2,140.9 -26.1,11.5 -63.1,18.1 -95.5,41.2 -32.3,23.1 -75,42.3 -72.7,50 2.3,7.7 40.4,4.6 81.2,-13.1 40.8,-17.7 58.7,-9.1 62.5,0.1 4,9.2 -21.7,74.4 -34,89.8 -12.3,15.4 -100.1,103.7 -85.5,116.8 14.7,13.1 71.7,-35.4 80.9,-45.4 0,0 -45.5,95.4 -27.7,100 17.7,4.7 50.7,-29.2 50.7,-29.2 0,0 -3.8,81.6 84,-50.8 0,0 -18.5,43.9 8.4,29.2 27,-14.6 53.2,-96.9 61.6,-138.5 8.5,-41.6 46.9,-174 79.7,-205.9 32.7,-32 -90.4,-85.1 -90.4,-85.1" /></g><g
         transform="scale(1.06816)"
         id="g452"><path
           id="path454"
           style="fill:#353a3d;fill-opacity:1;fill-rule:nonzero;stroke:none"
           d="m 15993,9968.75 c 0,0 -40.9,-3.61 -127.7,26.38 -86.8,29.97 -93.3,181.87 -112.1,163.87 -38.3,-36.7 -74.5,-11.4 -89,10.3 0,0 42.4,55.8 22.8,82.7 -19.7,26.9 -51.6,46.5 -51.6,46.5 0,0 61,294.4 339,160.3 325.6,-157.2 18.6,-490.05 18.6,-490.05" /></g><g
         transform="scale(1.04683)"
         id="g456"><path
           id="path458"
           style="fill:#254380;fill-opacity:1;fill-rule:nonzero;stroke:none"
           d="m 15999.9,10012 10,43.4 c 0,0 181,3.7 279.8,-10.6 l 10.3,-51.91 c 0,0 -126.4,-57.36 -300.1,19.11" /></g><g
         transform="scale(1.0362)"
         id="g460"><path
           id="path462"
           style="fill:#eea886;fill-opacity:1;fill-rule:nonzero;stroke:none"
           d="m 16209.1,10510.6 c 16.7,27.7 78.1,46.3 85.3,-31.9 5.6,-60.6 -109.8,-126.8 -110.9,-70.4 -1,56.5 14.6,84 25.6,102.3" /></g><path
         id="path464"
         style="fill:#e55353;fill-opacity:1;fill-rule:nonzero;stroke:none"
         d="m 15836.8,11021.7 c 0,0 -68.3,-1.7 -101.5,-31.7 0,0 -2.2,-19 5.5,-34 0,0 59.3,27.7 104.7,32.8 0,0 -0.7,24.9 -8.7,32.9" /><path
         id="path466"
         style="fill:#353a3d;fill-opacity:1;fill-rule:nonzero;stroke:none"
         d="m 15756.2,11004.6 c -6.3,-14.9 0.7,-32.2 15.7,-38.5 14.9,-6.3 32.2,0.7 38.5,15.6 6.3,15 -0.7,32.2 -15.6,38.6 -15,6.3 -32.3,-0.7 -38.6,-15.7" /><g
         transform="scale(1.12559)"
         id="g468"><path
           id="path470"
           style="fill:#ffbb55;fill-opacity:1;fill-rule:nonzero;stroke:none"
           d="m 15726.2,5327.7 h -1650 l 520,-1596.94 -48.6,-15.9 -541.9,1664.01 h 1757.6 l 536.7,-1648.11 -48.7,-15.9 -525.1,1612.84" /></g><g
         transform="scale(1.08796)"
         id="g472"><path
           id="path474"
           style="fill:#ffbb55;fill-opacity:1;fill-rule:nonzero;stroke:none"
           d="m 15689.1,3859.8 538,1652.18 h -1707 l -543.4,-1668.63 -50.2,16.45 555.1,1705.12 H 16300 l -560.6,-1721.57 -50.3,16.45" /></g><g
         transform="scale(1.09656)"
         id="g476"><path
           id="path478"
           style="fill:#ffbb55;fill-opacity:1;fill-rule:nonzero;stroke:none"
           d="m 16300,4952.56 h -2073 v 52.53 h 2073 v -52.53" /></g><g
         transform="scale(1.11093)"
         id="g480"><path
           id="path482"
           style="fill:#ffbb55;fill-opacity:1;fill-rule:nonzero;stroke:none"
           d="m 16300,4325.94 h -2448 v 51.76 h 2448 v -51.76" /></g><g
         transform="scale(1.34637)"
         id="g484"><path
           id="path486"
           style="fill:#213a70;fill-opacity:1;fill-rule:nonzero;stroke:none"
           d="m 16200.3,4922.18 c 0,0 9.2,-74.94 21.3,-107.99 12.2,-33.05 78.4,-109.41 50.5,-182.72 -30.3,-79.54 -162.6,-2.89 -216.5,21.4 -54,24.21 -41.7,68.26 -47.4,122.18 -5.8,53.92 -32.1,55.33 -22.4,93.28 9.7,37.88 68.7,110.45 68.7,110.45 l 145.8,-56.6" /></g><g
         transform="scale(1.33922)"
         id="g488"><path
           id="path490"
           style="fill:#eea886;fill-opacity:1;fill-rule:nonzero;stroke:none"
           d="m 16165.9,5044.87 c 0,0 -34.1,-47.63 -33.1,-48.98 0.9,-1.27 145.8,-89.45 155.9,-60.86 7.9,22.7 11.3,55.63 11.3,55.63 l -134.1,54.21" /></g><g
         transform="scale(1.30387)"
         id="g492"><path
           id="path494"
           style="fill:#213a70;fill-opacity:1;fill-rule:nonzero;stroke:none"
           d="m 16099.9,5027.97 c 0,0 -45.4,-39.8 -86.1,-100.93 -40.8,-61.12 -149,-64.42 -153.6,-147.86 -4.6,-83.45 147.1,-85.98 226.7,-58.83 79.7,27.15 91.7,108.68 139.9,129.08 48.2,20.32 73.2,36.81 69.4,76.62 -3.6,39.8 -30.3,104.38 -30.3,104.38 0,0 -29.9,-9.59 -47.5,-11.51 -17.6,-1.91 -76.9,-2.6 -118.5,9.05" /></g><g
         transform="scale(1.33154)"
         id="g496"><path
           id="path498"
           style="fill:#fae6de;fill-opacity:1;fill-rule:nonzero;stroke:none"
           d="m 16300,7137.53 c 0,0 -30,-177.77 -54,-295.23 v 0 c -9.8,-47.61 -18.6,-85.31 -24.1,-97.18 -6.9,-14.94 -63,-75.25 -131.7,-145.92 -120.5,-124.07 -279.7,-280.27 -279.7,-280.27 l -62.3,118.13 c 0,0 141.4,165.82 237.4,276.45 44.3,51.14 79,90.57 85.3,96.2 20,17.95 43.3,194.66 76,340.21 32.7,145.62 98.2,226.05 98.2,226.05 l 54.9,-238.44" /></g><g
         transform="scale(1.3144)"
         id="g500"><path
           id="path502"
           style="fill:#eea886;fill-opacity:1;fill-rule:nonzero;stroke:none"
           d="m 16300,6685.23 c -122.1,-125.69 -283.4,-283.93 -283.4,-283.93 l -63.1,119.67 c 0,0 143.3,167.99 240.4,280.05 29.8,-14.6 84.4,-49.45 106.1,-115.79" /></g><g
         transform="scale(1.30128)"
         id="g504"><path
           id="path506"
           style="fill:#eea886;fill-opacity:1;fill-rule:nonzero;stroke:none"
           d="m 16139,5093.67 -7.1,-55.72 c 0,0 79.1,-27.97 166.3,2.46 l 1.8,49.57 -161,3.69" /></g><g
         transform="scale(1.39191)"
         id="g508"><path
           id="path510"
           style="fill:#fae6de;fill-opacity:1;fill-rule:nonzero;stroke:none"
           d="m 16138.6,6067.83 c 4.2,-15.16 -783.8,0 -783.8,0 0,0 218,158.63 232.1,201.02 14.1,42.39 -55.5,296.71 -64.6,379.48 -7.3,66.16 -25.4,362.45 18.2,407.71 45.6,47.27 209.9,96.84 209.9,96.84 l 239.5,-8.9 c 0,0 39.5,-8.27 67.8,-21.34 28.2,-13.15 189.9,-70.7 216.1,-151.45 26.2,-80.68 -161.2,-340.32 -161.2,-340.32 0,0 -0.4,-11.64 -1,-30.75 v 0 c -0.7,-25.5 -1.8,-64.23 -2.8,-106.26 -1.2,-54.45 -2.3,-114.37 -2.3,-158.12 0,-102.96 27.8,-252.75 32.1,-267.91" /></g><g
         transform="scale(1.38754)"
         id="g512"><path
           id="path514"
           style="fill:#303669;fill-opacity:1;fill-rule:nonzero;stroke:none"
           d="m 16189.4,6086.96 c 0,0 107.6,-157.9 109.1,-265.72 1.5,-107.82 -190.9,-468.96 -220,-520.56 -87.5,-155.31 -327.4,-490.29 -327.4,-490.29 0,0 -41.4,1.08 -170.4,51.17 0,0 159.6,442.43 179.9,488.41 85.7,194.81 133.6,332.97 104.8,366.41 -28.9,33.37 -107.5,66.88 -130.3,86.62 -22.8,19.75 -419.6,-74.95 -461.2,-85.76 -107.6,-27.89 -58.5,-215.27 -34.7,-299.23 39.9,-140.47 74.7,-647.91 74.7,-647.91 0,0 -76.7,-32.65 -205.1,-5.05 0,0 -252.3,916.16 -260.4,1007.25 -8,91.17 -12.1,241.37 609.5,355.6 l 731.5,-40.94" /></g><g
         transform="scale(1.36676)"
         id="g516"><path
           id="path518"
           style="fill:#eea886;fill-opacity:1;fill-rule:nonzero;stroke:none"
           d="m 16107.2,7814.5 c 0,0 -211.7,47.75 -163.4,-218.72 48.4,-266.46 99.3,-287.41 227.1,-232.25 127.7,55.14 116.2,225.86 122.7,309.58 6.4,83.71 -118.9,138.47 -186.4,141.39" /></g><g
         transform="scale(1.36633)"
         id="g520"><path
           id="path522"
           style="fill:#eea886;fill-opacity:1;fill-rule:nonzero;stroke:none"
           d="m 16056.2,7218.38 c 0,0 93.8,-99.39 242,-9 0,0 -33.1,215.47 -15.7,320.45 17.5,104.96 -193.4,-162.65 -193.4,-162.65 2.8,-1.46 4.7,-11.47 5,-25.73 0.4,-12.07 -0.2,-27.19 -2.2,-42.71 -4.3,-34.91 -15.2,-71.72 -35.7,-80.36" /></g><g
         transform="scale(1.36814)"
         id="g524"><path
           id="path526"
           style="fill:#3a3f47;fill-opacity:1;fill-rule:nonzero;stroke:none"
           d="m 16266.8,7528.77 c 0,0 -5.4,83.87 -36.1,86.49 -30.6,2.62 -35.3,-31.17 -35.3,-31.17 l -30.9,-5.84 c 0,0 9.7,73.53 -20.8,86.36 -30.7,12.85 -198.3,-40.46 -222.8,-18.89 -24.6,21.57 -13,170.7 31.4,191.1 44.4,20.4 167,66.13 256.9,5.31 0,0 70,8 80.4,-48.54 10.4,-56.52 -3.7,-222.79 -22.8,-264.82" /></g><g
         transform="scale(1.36269)"
         id="g528"><path
           id="path530"
           style="fill:#a77860;fill-opacity:1;fill-rule:nonzero;stroke:none"
           d="m 16134.9,7318.23 c 153.4,47.28 164.9,139.61 165.1,141.06 -50.6,-86.77 -162.9,-98.24 -162.9,-98.24 0.4,-12.1 -0.2,-27.26 -2.2,-42.82" /></g><g
         transform="scale(1.37143)"
         id="g532"><path
           id="path534"
           style="fill:#eea886;fill-opacity:1;fill-rule:nonzero;stroke:none"
           d="m 16300,7227.86 c 0,0 -111.6,-222.1 -291.8,-207.81 -180.3,14.36 -30.7,237.63 -22.5,239.67 8.9,2.27 184.8,46.11 314.3,-31.86" /></g><g
         transform="scale(1.37813)"
         id="g536"><path
           id="path538"
           style="fill:#fae6de;fill-opacity:1;fill-rule:nonzero;stroke:none"
           d="m 15417.4,6139.7 c 0,0 549.6,-67.77 882.6,-11.17 l -636.3,79.45 c 0,0 -3.8,-16.18 -246.3,-68.28" /></g><g
         transform="scale(1.34137)"
         id="g540"><path
           id="path542"
           style="fill:#eea886;fill-opacity:1;fill-rule:nonzero;stroke:none"
           d="m 16262.2,6403.84 -42,-21.33 c 0,0 9.6,-66.8 32.6,-87 l 47.2,12 c 0,0 -9.8,73.29 -37.8,96.33" /></g><g
         transform="scale(1.39367)"
         id="g544"><path
           id="path546"
           style="fill:#fae6de;fill-opacity:1;fill-rule:nonzero;stroke:none"
           d="m 16280.8,6295.25 c -8,-9.39 -114.9,-52.37 -235.6,-98.87 v 0 c -164.9,-63.5 -350.9,-123.63 -350.9,-123.63 l -42.4,90.77 c 0,0 194.8,105.9 326.5,180.1 62.1,35.08 110.2,63.07 117,69.53 21.2,20.16 26.7,52.52 11.1,108.84 -15.6,56.4 -51.4,315.5 -55.4,345.71 -4,30.28 10,110.93 85.7,114.95 75.5,4.02 114,-17.29 114,-17.29 0,0 19,-7.89 33.1,-191.37 14.1,-183.4 16.1,-456.56 -3.1,-478.74" /></g><g
         transform="scale(1.37583)"
         id="g548"><path
           id="path550"
           style="fill:#968a86;fill-opacity:1;fill-rule:nonzero;stroke:none"
           d="m 16300,6677.29 v 0 c -0.7,-25.81 -1.8,-64.98 -2.8,-107.5 -74.8,183.16 -31.6,329.4 -30.9,331.8 -8,-49.64 33.1,-221.83 33.7,-224.3" /></g><g
         transform="scale(1.32713)"
         id="g552"><path
           id="path554"
           style="fill:#968a86;fill-opacity:1;fill-rule:nonzero;stroke:none"
           d="m 16300,6865.05 v 0 c -9.9,-47.77 -18.7,-85.6 -24.2,-97.51 -26.4,128.02 -2.6,291.99 -2.6,291.99 3.6,-78.29 26.8,-194.48 26.8,-194.48" /></g><g
         transform="scale(1.37188)"
         id="g556"><path
           id="path558"
           style="fill:#eea886;fill-opacity:1;fill-rule:nonzero;stroke:none"
           d="m 16300,6294.78 v 0 c -167.5,-64.51 -362.6,-127.57 -362.6,-127.57 l -36.9,94.18 c 0,0 197.9,107.59 331.6,182.96 0,0 48.7,-23.69 67.9,-149.57" /></g><g
         transform="scale(1.33726)"
         id="g560"><path
           id="path562"
           style="fill:#807571;fill-opacity:1;fill-rule:nonzero;stroke:none"
           d="m 16300,6321.29 -805.1,11.9 406.4,-206.47 398.7,194.57" /></g><g
         transform="scale(1.33726)"
         id="g564"><path
           id="path566"
           style="fill:#dbcac2;fill-opacity:1;fill-rule:nonzero;stroke:none"
           d="m 15901.3,6126.72 398.7,154.42 v 40.15 l -430.1,-155.16 31.4,-39.41" /></g><g
         transform="scale(1.33872)"
         id="g568"><path
           id="path570"
           style="fill:#eea886;fill-opacity:1;fill-rule:nonzero;stroke:none"
           d="m 16261.3,6393.7 c 0,0 -50.3,7.84 -85,15.91 -26.8,6.28 -93.7,-2.39 -110.6,-19.65 -17.1,-17.25 -71.2,-137.36 -81.5,-144.69 -10.2,-7.32 5.3,-24.27 23.3,-15.76 0,0 16.5,-52.58 57.2,-32.94 40.8,19.72 68.4,62.67 89.7,70.22 21.4,7.62 145.6,45.79 145.6,45.79 0,0 -6.7,93.89 -38.7,81.12" /></g><g
         transform="scale(1.32402)"
         id="g572"><path
           id="path574"
           style="fill:#eea886;fill-opacity:1;fill-rule:nonzero;stroke:none"
           d="m 16256.5,6468.94 c 0,0 -32.6,-15.78 -41.2,-22.81 -8.5,-7.02 -43,-32.85 -51.4,-38.97 -8.3,-6.04 12.6,-23.34 74.4,3.4 61.7,26.74 18.2,58.38 18.2,58.38" /></g><g
         transform="scale(1.30455)"
         id="g576"><path
           id="path578"
           style="fill:#dbcac2;fill-opacity:1;fill-rule:nonzero;stroke:none"
           d="m 16300,6280.32 -245.4,670.27 -791.4,-12.88 233.9,-617.69 802.9,-39.7" /></g><g
         transform="scale(1.26658)"
         id="g580"><path
           id="path582"
           style="fill:#b0a29c;fill-opacity:1;fill-rule:nonzero;stroke:none"
           d="m 16275.1,6853.59 c 24.9,-49.74 17.3,-103.9 -16.8,-120.95 -34.1,-17.06 -81.9,9.39 -106.8,59.13 -24.9,49.74 -17.4,103.83 16.7,120.96 34.2,17.05 82.1,-9.4 106.9,-59.14" /></g><g
         transform="scale(1.36417)"
         id="g584"><path
           id="path586"
           style="fill:#eea886;fill-opacity:1;fill-rule:nonzero;stroke:none"
           d="m 16243.2,7641.82 c 2.8,23.54 49.3,32.18 53.1,-3.13 3.7,-35.32 -21.2,-97.3 -38.9,-91.2 -17.7,6.1 -18.1,61.85 -14.2,94.33" /></g><path
         id="path588"
         style="fill:#eea886;fill-opacity:1;fill-rule:nonzero;stroke:none"
         d="m 14048.7,6912.1 c 0,0 -10.4,-56.4 -42,-64.7 -26.9,-7.1 -56.6,-35.7 -65.8,-44.5 -12.2,-11.7 -63.2,-33.8 -48.5,-49.4 14.6,-15.5 85.8,32.4 102.7,39.4 17,7.1 -7.3,-71.3 -0.5,-89.1 6.9,-17.8 139,-50.6 149.4,5.1 10.4,55.7 -15.2,122.1 -11.4,131.6 3.7,9.4 9.1,40.2 9.1,40.2 l -93,31.4" /><path
         id="path590"
         style="fill:#eea886;fill-opacity:1;fill-rule:nonzero;stroke:none"
         d="m 13994,6717.4 c 0,0 -20.5,-172.7 -12.3,-185.4 8.3,-12.6 17.7,-13.2 20.3,2.9 2.6,16.1 24.7,166.3 24.7,166.3 0,0 10,-208.5 14.5,-220.4 2.6,-6.9 20.8,-9.1 23,-0.6 2.2,8.5 4.1,215.7 4.1,215.7 0,0 9.7,-194.7 16.4,-203.5 5.9,-7.7 23.1,-5.5 23.3,9 0.3,14.5 1.5,195.7 1.5,195.7 0,0 16,-141.2 26.1,-145.3 6.1,-2.5 21.7,-5.1 16.5,31.2 -5.3,36.3 -8.7,123.3 -8.7,123.3 l -149.4,11.1" /><path
         id="path592"
         style="fill:#eea886;fill-opacity:1;fill-rule:nonzero;stroke:none"
         d="m 12193.9,9031 c 0,0 -28.4,52.9 -38.1,95.2 -9.7,42.3 -62.5,98.6 -83.9,112 -21.5,13.3 -177.4,124.9 -195.4,124.9 -18,0 -7.6,-34.6 8,-44.7 15.6,-10.1 142.2,-108.7 142.2,-108.7 0,0 -157.5,108.6 -173.9,105.7 -16.5,-3 -28.2,-23.9 -10.5,-45.4 0,0 -35.9,-23.6 1.5,-52.3 l 74.4,-57.5 c 0,0 -43.8,22.7 -27.5,-12.5 8.6,-18.7 100.2,-73.3 114.8,-90 14.7,-16.7 130.2,-73 130.2,-73 l 58.2,46.3" /><path
         id="path594"
         style="fill:#eea886;fill-opacity:1;fill-rule:nonzero;stroke:none"
         d="m 13116.6,4190.8 h -39 c 0,0 13,147.5 -23.1,148.9 -36.2,1.5 -125.8,-119.9 -179.3,-138.7 -53.4,-18.8 -328,-34.7 -329.5,15.9 -1.4,50.5 105.5,70.8 138.7,85.2 33.3,14.5 195.2,172.1 224.1,190.8 28.9,18.8 76.6,114.2 76.6,114.2 h 147.4 c 0,0 16.2,-80 25.5,-144.7 3.4,-23.9 5.9,-45.7 6.3,-60.5 1.4,-55 -47.7,-211.1 -47.7,-211.1" /><path
         id="path596"
         style="fill:#eea886;fill-opacity:1;fill-rule:nonzero;stroke:none"
         d="m 13794.9,4220 h -32.6 v 137.2 c -27,-2.2 -118.1,-88.4 -146.3,-113.4 -28.2,-24.9 -66.8,-23.8 -185.6,-31.3 -118.6,-7.6 -129.8,63.5 -111.1,87.7 18.8,24.2 79.5,34.7 111.1,49.8 31.6,15.2 156.3,155.8 189.6,189 33.2,33.3 53.5,128.5 53.5,128.5 l 138.7,-12.1 c 0,0 -0.9,-87.1 14.9,-160.2 v 0 l 0.2,-0.6 c 1.3,-6.2 2.8,-12.3 4.4,-18.3 20.6,-76 -36.8,-256.3 -36.8,-256.3" /><path
         id="path598"
         style="fill:#eea886;fill-opacity:1;fill-rule:nonzero;stroke:none"
         d="m 13470.3,8806.6 c 0,0 67.7,-142.9 31.6,-259.7 0,0 208.3,28.4 214.5,52.7 6.2,24.4 -26.1,243.5 -2,310.7 24.1,67.1 -244.1,-103.7 -244.1,-103.7" /><path
         id="path600"
         style="fill:#ffc055;fill-opacity:1;fill-rule:nonzero;stroke:none"
         d="m 13465.4,8594.2 c 0,0 -120.6,-51.8 -175.7,-67.7 -55,-16 -168.1,-78.3 -143.8,-280.6 24.2,-202.3 71.8,-375.8 90.8,-462.1 19,-86.3 27.2,-308.9 14.4,-418.2 0,0 301.8,-51.5 645.4,46.7 0,0 -75.2,179.5 -77,227.2 -1.9,47.7 174.3,454.2 179.3,516.7 5.1,62.6 26.5,338.3 -71.4,391.8 -97.9,53.5 -173.5,40 -215.1,64.1 -41.6,24.1 -190.5,5.6 -246.9,-17.9" /><path
         id="path602"
         style="fill:#ffc055;fill-opacity:1;fill-rule:nonzero;stroke:none"
         d="m 13465.9,8279.6 c 0,0 46.3,242.9 -189.2,242.5 -207.1,-0.3 -402.7,38.9 -435.5,57.2 -32.8,18.2 -159.4,80.4 -225.9,148.8 -66.5,68.4 -426.8,342.4 -426.8,342.4 l -99.6,-100.7 c 0,0 380.1,-412.8 441.4,-453 61.3,-40.2 575.8,-327.6 641.1,-336.7 65.3,-9 248.6,-58.9 294.5,99.5" /><path
         id="path604"
         style="fill:#ffc055;fill-opacity:1;fill-rule:nonzero;stroke:none"
         d="m 14206.1,7528.8 c 7,-85.5 -39.5,-676.3 -39.5,-676.3 l -167.6,-19.3 c 0,0 12,583.5 21.3,718 2.8,39.7 -6.4,100.5 -20.7,166.3 v 0.1 c -9,41.9 -20.2,85.8 -31.7,127.7 -31.7,115.7 -65.8,216.2 -65.8,216.2 0,0 -187.6,488 47.7,468.2 0,0 87.5,-90.1 124.5,-238.1 37,-147.9 79.4,-369.6 81,-458 1.6,-88.3 45.6,-241.8 50.8,-304.8" /><path
         id="path606"
         style="fill:#323657;fill-opacity:1;fill-rule:nonzero;stroke:none"
         d="m 13291.5,7370.4 c 0,0 -54.1,-127.8 -58.8,-160.1 -4.8,-32.3 -174.3,-454.2 -186,-577.6 -12,-124.8 -47.7,-457.9 -60.5,-505.6 -12.7,-47.7 28.7,-260.8 35,-308.5 6.4,-47.7 3.2,-826.7 -54,-1211.5 0,0 133.5,-57.2 235.3,0 0,0 168.5,601 159,947.6 -9.6,346.6 -53.6,492.9 0.2,632.8 53.8,139.9 368.6,559.6 400.4,604.2 31.8,44.5 231,290.5 42.4,557 -188.7,266.5 -513,21.7 -513,21.7" /><path
         id="path608"
         style="fill:#323657;fill-opacity:1;fill-rule:nonzero;stroke:none"
         d="m 13942.5,6232 c -16.7,-111.3 0.9,-257.5 35.8,-664.6 35,-407 -61.2,-899.8 -61.2,-899.8 -120.8,-41.4 -259.9,0 -259.9,0 3.2,28.6 0,992.1 0,1077.9 0,85.9 -24.7,183.3 -31,281.9 -4.4,67.1 -35.6,190.9 -70.8,317.3 -10.5,37.9 -21.4,76 -32,112.8 v 0.1 c -5.9,20.6 -11.7,41 -17.4,60.6 -49.5,171.7 -116.1,834.8 -116.1,834.8 0,0 369,297.2 548.7,17.4 179.7,-279.8 87.4,-483.3 81.1,-518.3 -6.4,-35 -60.5,-508.8 -77.2,-620.1" /><path
         id="path610"
         style="fill:#ffc055;fill-opacity:1;fill-rule:nonzero;stroke:none"
         d="m 13227.4,7870.5 c 0,0 32.8,-526.8 -65.3,-823.2 0,0 389.7,-65 886.9,102.5 0,0 -136.8,354.1 -132.1,409.5 4.8,55.3 148.7,700.2 79.6,844.4 -69.1,144.3 -744.6,-60.5 -769.1,-533.2" /><path
         id="path612"
         style="fill:#eea886;fill-opacity:1;fill-rule:nonzero;stroke:none"
         d="m 13545.7,9393.9 c -89.1,3.6 -316.6,-30.9 -274.2,-373.8 42.4,-342.8 166.2,-313.1 288.8,-267.6 122.6,45.6 252.4,322.8 247.2,394.1 -5.2,71.4 -7.6,237 -261.8,247.3" /><path
         id="path614"
         style="fill:#33373b;fill-opacity:1;fill-rule:nonzero;stroke:none"
         d="m 13272.8,9178.6 c 0,0 108.7,-119.7 211,-142.8 0,0 87,-132.2 224,-157.6 0,0 266.8,294.9 10.8,483.6 -256,188.7 -455,-78.1 -445.8,-183.2" /><path
         id="path616"
         style="fill:#eea886;fill-opacity:1;fill-rule:nonzero;stroke:none"
         d="m 13461.5,9081.7 c 2,19.1 41,60.4 76.2,19.9 35.3,-40.5 -16.1,-144.6 -38.3,-146.3 -22.2,-1.6 -45.4,54.1 -37.9,126.4" /><path
         id="path618"
         style="fill:#23263d;fill-opacity:1;fill-rule:nonzero;stroke:none"
         d="m 13789.5,6830 c -2.9,-6.3 -186.7,-414.5 -234.1,-485.3 -10.5,37.9 -21.4,76 -32,112.8 v 0.1 c 0,0 259.9,363.4 266.1,372.4" /><path
         id="path620"
         style="fill:#c49441;fill-opacity:1;fill-rule:nonzero;stroke:none"
         d="m 14007.9,8136 c 0,0 13,-259.4 -8.3,-418.4 -9,41.9 -20.2,85.8 -31.7,127.7 0.9,5.9 36.6,249.7 40,290.7" /><path
         id="path622"
         style="fill:#ffc055;fill-opacity:1;fill-rule:nonzero;stroke:none"
         d="m 13196,8337.4 c 0,0 -79.7,-284.6 -96.6,-344.3 -21.8,-77.6 88.6,-191.9 178.5,-147 89.9,44.8 -81.9,491.3 -81.9,491.3" /><path
         id="path624"
         style="fill:#323657;fill-opacity:1;fill-rule:nonzero;stroke:none"
         d="m 13794.9,4220 h -32.6 v 137.2 c -27,-2.2 -118.1,-88.4 -146.3,-113.4 -28.2,-24.9 -66.8,-23.8 -185.6,-31.3 -118.6,-7.6 -129.8,63.5 -111.1,87.7 18.8,24.2 79.5,34.7 111.1,49.8 127,-6.8 282,171.8 356.4,171.4 39.5,-0.2 39.1,-22.1 40.3,-26.2 v 0 l 0.2,-0.6 c 1.3,-6.2 2.8,-12.3 4.4,-18.3 20.6,-76 -36.8,-256.3 -36.8,-256.3" /><path
         id="path626"
         style="fill:#323657;fill-opacity:1;fill-rule:nonzero;stroke:none"
         d="m 13116.6,4190.8 h -39 c 0,0 13,147.5 -23.1,148.9 -36.2,1.5 -125.8,-119.9 -179.3,-138.7 -53.4,-18.8 -328,-34.7 -329.5,15.9 -1.4,50.5 105.5,70.8 138.7,85.2 113.3,0.3 297.5,125 354.6,150.2 57.1,25.3 119,10.1 119,10.1 3.4,-23.9 5.9,-45.7 6.3,-60.5 1.4,-55 -47.7,-211.1 -47.7,-211.1" /><path
         id="path628"
         style="fill:#33373b;fill-opacity:1;fill-rule:nonzero;stroke:none"
         d="m 13614.3,9416.1 c 0,0 310.1,7.1 263.5,-525.6 -35.8,-409.4 114.7,-611.7 93.5,-671.4 -21.2,-59.6 -93.9,-159.4 -256.7,-69.4 -162.7,89.9 -55.6,559.2 -143,741.8 -87.4,182.6 -279.4,267.2 -279.4,267.2 0,0 33.7,310.9 322.1,257.4" /><path
         id="path630"
         style="fill:#eea987;fill-opacity:1;fill-rule:nonzero;stroke:none"
         d="m 8993.94,5392.3 c -32.65,-70 -494.19,-702.5 -522.17,-774 -27.99,-71.4 -218.59,-372.9 -218.59,-372.9 l -117.1,82.3 c 0,0 304.35,859.5 399.36,978.3 v 0 c 2.2,2.7 4.28,5.1 6.24,7 11.92,11.7 24.6,24 37.4,36.8 h 0.04 c 80.79,80.6 108.81,154.1 48.45,237.3 -69.92,96.3 -301.89,647.5 -312.77,701.8 -10.86,54.4 -419.59,794.2 453.8,491.1 0,0 147.63,-461.5 169.37,-801.9 21.78,-340.3 88.62,-515.9 55.97,-585.8" /><path
         id="path632"
         style="fill:#a77860;fill-opacity:1;fill-rule:nonzero;stroke:none"
         d="m 8579.08,5349.8 c 0,0 -0.32,-226.4 -9.64,-297.1 -9.37,-70.6 -9.56,-170.7 -9.56,-170.7 0,0 -95.36,284 -24.44,424 v 0 c 2.2,2.7 4.28,5.1 6.24,7 11.92,11.7 24.6,24 37.4,36.8" /><path
         id="path634"
         style="fill:#eea886;fill-opacity:1;fill-rule:nonzero;stroke:none"
         d="m 9479.85,8117.8 c 0,0 27.31,66.6 37.39,81.8 10.06,15.2 -21.38,48.2 -41.15,8.6 -19.77,-39.6 -31.85,-64.9 -31.85,-64.9 l 35.61,-25.5" /><path
         id="path636"
         style="fill:#7d699c;fill-opacity:1;fill-rule:nonzero;stroke:none"
         d="m 9452.29,8055.2 92.55,286.9 c 6.1,18.9 -5.67,38.9 -25.16,42.7 l -139.31,27.5 c -17.48,3.5 -34.56,-7.5 -38.7,-24.8 l -70.38,-294.6 c -4.46,-18.7 7.82,-37.3 26.75,-40.5 l 117.14,-19.8 c 16.25,-2.7 32.05,6.9 37.11,22.6" /><path
         id="path638"
         style="fill:#eea886;fill-opacity:1;fill-rule:nonzero;stroke:none"
         d="m 9490.11,8074.4 c 0,0 11.72,24.8 -28.98,66.4 -54.06,55.3 -129.85,119.1 -147.79,116.4 -25.82,-3.9 -20.74,-24.3 15.66,-53.2 36.4,-28.8 48.47,-38.2 48.47,-38.2 0,0 -78.18,37.4 -99.91,34.4 -21.72,-3 -30.94,-25 -19.01,-33.6 11.94,-8.5 42.43,-22.2 42.43,-22.2 0,0 -34.83,11.3 -43.33,-1.3 -6.29,-9.3 -12.89,-23.4 17.41,-41.4 0,0 -31.06,-16.4 -3.71,-44.2 27.35,-27.8 30.89,-44.7 26.65,-81 -4.24,-36.3 18.79,-93.5 18.79,-93.5 l 105.51,11.8 c 0,0 19.38,94.7 33.12,116.8 13.74,22.1 34.69,62.8 34.69,62.8" /><path
         id="path640"
         style="fill:#323657;fill-opacity:1;fill-rule:nonzero;stroke:none"
         d="m 9433.77,7883 c 0.16,-26.7 -413.51,-559 -446.39,-559.5 -50.95,-0.7 -114.17,75.8 -162.46,148.2 0,0 2.43,11.9 17.84,143 15.42,131 -40.81,217.5 -40.81,217.5 0,0 -42.72,-183.8 -26.53,-280.1 -15.53,27.1 -24.86,45.4 -24.86,45.4 0,0 -398.81,428.3 -144.1,542.6 0,0 132.81,-44.6 191.09,-147.3 58.28,-102.8 82.95,-213.7 102.91,-276.4 0,0 60.56,-130 77.29,-118.3 16.73,11.7 97.94,124.9 164.58,177.9 66.61,53.1 139.19,178.8 139.19,178.8 0,0 152.06,-41.6 152.25,-71.8" /><path
         id="path642"
         style="fill:#ab3434;fill-opacity:1;fill-rule:nonzero;stroke:none"
         d="m 8842.76,7614.7 c -15.41,-131.1 -17.84,-143 -17.84,-143 -19.54,29.2 -36.62,57.8 -49.5,80.3 v 0.1 c -16.19,96.3 26.53,280.1 26.53,280.1 0,0 56.23,-86.5 40.81,-217.5" /><path
         id="path644"
         style="fill:#eea987;fill-opacity:1;fill-rule:nonzero;stroke:none"
         d="m 8477.22,3857.2 c -0.12,-36.1 2.34,-56 -100.27,-57.4 -102.61,-1.4 -201.4,130.2 -270.4,222.8 -69.03,92.6 -158.84,136.7 -102.38,199.4 6.95,7.7 14.27,15.6 21.82,23.4 53.59,55.6 117.14,110.2 125.55,121.3 9.51,12.7 101.64,-121.3 101.64,-121.3 0,0 -7.75,-67.2 8.75,-106.5 16.46,-39.1 42.63,-181.6 91.23,-205.2 l 0.08,-0.1 c 48.61,-23.5 123.98,-68.5 123.98,-76.4" /><path
         id="path646"
         style="fill:#eea987;fill-opacity:1;fill-rule:nonzero;stroke:none"
         d="m 9094.42,3675.4 c -73.46,1.4 -281.72,12.1 -397.39,0 -115.68,-12.3 -160.58,5.4 -152.45,88.4 0.42,4.6 0.96,9.1 1.58,13.8 10.41,81.1 42.86,183.2 45.09,217.1 2.36,35.9 148.79,16 148.79,16 0,0 76.74,-113.4 118.95,-136.6 42.17,-23.1 169.91,-70.3 218.9,-92 3.57,-1.7 7.48,-3.1 11.56,-4.5 h 0.04 c 51.76,-17.6 139.3,-20 151.95,-47.7 13.6,-30 -73.52,-55.9 -147.02,-54.5" /><path
         id="path648"
         style="fill:#eea987;fill-opacity:1;fill-rule:nonzero;stroke:none"
         d="m 8071.85,6812.8 c 0,0 -208.04,-323 -156.75,-616.7 51.28,-293.7 239.64,-614.2 272.28,-737.8 32.63,-123.5 24.95,-253.6 25.16,-351.7 0.36,-156.1 91.82,-449.9 162.41,-594.5 68.72,-140.8 222.7,-543.4 222.7,-543.4 l 146.86,21 c 0,0 -212.13,993.1 -214.47,1065.3 -2.33,72.3 16.32,286.8 -4.65,380 -20.99,93.2 -111.9,725 -142.2,841.5 -30.3,116.6 74.07,732.1 -311.34,536.3" /><path
         id="path650"
         style="fill:#323657;fill-opacity:1;fill-rule:nonzero;stroke:none"
         d="m 8760.87,6882.6 c 0,0 39.15,-143.9 53.26,-185.8 14.09,-41.8 136.21,-571.3 188.62,-974.7 0,0 -186.85,-300.1 -866.66,-289.1 0,0 -252.43,622.4 -246.02,844.2 7.48,258.1 136.92,602.9 220.33,666.8 74.21,56.9 650.47,-61.4 650.47,-61.4" /><path
         id="path652"
         style="fill:#1d2033;fill-opacity:1;fill-rule:nonzero;stroke:none"
         d="m 8842.76,7614.7 c -15.41,-131.1 -17.84,-143 -17.84,-143 -19.54,29.2 -36.62,57.8 -49.5,80.3 v 0.1 c -16.19,96.3 26.53,280.1 26.53,280.1 0,0 56.23,-86.5 40.81,-217.5" /><path
         id="path654"
         style="fill:#323657;fill-opacity:1;fill-rule:nonzero;stroke:none"
         d="m 8018.53,7580.6 c 45.61,-88.6 71.64,-233.1 97.85,-267.2 49.66,-64.6 35.05,-155.4 34.84,-184.4 -0.54,-84.5 -108.49,-291.7 -108.49,-291.7 52.25,-27.8 730.19,-51.7 718.14,45.3 -12.05,96.9 5.37,439 12.42,510.9 7.06,71.8 -2.41,143.1 4.01,174.5 6.42,31.5 40.07,87.7 43.02,174.1 2.95,86.4 -61.03,161.1 -86.28,222.4 -30.57,74.2 -87.04,176 -140.26,178.4 -47.81,2.1 -115.42,31.5 -115.42,31.5 l -189.58,14.6 c 0,0 -52.73,-18.1 -133.35,-24.2 -80.63,-6 -124.44,-14.7 -205.76,-59.3 -81.32,-44.7 -42.7,-349.5 -42.7,-349.5 0,0 66.58,-80.9 111.56,-175.4" /><path
         id="path656"
         style="fill:#eea886;fill-opacity:1;fill-rule:nonzero;stroke:none"
         d="m 8489.15,8377.1 c 0,0 -3.5,-22.3 -6.39,-55.1 -1.48,-16.7 -2.8,-36.1 -3.43,-56.7 -1.67,-56.9 2.02,-122.6 22.65,-163.8 0,0 -103.5,-67.2 -220.94,86.3 0,0 5.4,194.8 -62.44,296.4 -67.82,101.5 270.55,-107.1 270.55,-107.1" /><path
         id="path658"
         style="fill:#eea886;fill-opacity:1;fill-rule:nonzero;stroke:none"
         d="m 8234.85,8175.5 c 0,0 53.28,-274.9 219.33,-238.7 166.05,36.1 33.41,234.7 33.41,234.7 0,0 -71.04,65.4 -252.74,4" /><path
         id="path660"
         style="fill:#eea886;fill-opacity:1;fill-rule:nonzero;stroke:none"
         d="m 7967.37,7415.3 c 0,0 70.38,-37.3 114.05,-50.2 33.79,-9.9 105.1,-58.6 115.35,-86 10.26,-27.3 8.55,-179.1 16.31,-192.5 7.76,-13.5 -18.72,-21 -34.65,-1.7 0,0 -46.36,-42.3 -82.25,1.7 -35.9,44 -44.7,103.3 -64.93,123.6 -20.24,20.3 -141.18,132.9 -141.18,132.9 0,0 47.69,104.1 77.3,72.2" /><path
         id="path662"
         style="fill:#323657;fill-opacity:1;fill-rule:nonzero;stroke:none"
         d="m 8612.83,8609 c 0,0 -32.56,-321.2 26.76,-401.7 0,0 -157.1,34.2 -193.48,88.3 -36.38,54 166.72,313.4 166.72,313.4" /><path
         id="path664"
         style="fill:#eea886;fill-opacity:1;fill-rule:nonzero;stroke:none"
         d="m 8399.8,8970.5 c 0,0 192.06,5 227.38,-222.4 35.32,-227.4 -46.36,-427.2 -78.37,-459.2 -32.01,-32 -224.07,-7.7 -269.32,110.4 -45.26,118.1 -111.48,204.2 -101.55,305.8 9.94,101.5 -14.35,269.3 221.86,265.4" /><path
         id="path666"
         style="fill:#323657;fill-opacity:1;fill-rule:nonzero;stroke:none"
         d="m 8635.35,8662.1 c 0,0 51.43,283.6 -203.54,334.4 -254.97,50.7 -344.38,-123.7 -368.66,-227.4 -24.29,-103.8 4.44,-396.3 4.44,-396.3 0,0 169.95,-149 271.5,-187.6 0,0 -84.99,311.2 -52.98,534.2 0,0 207.17,-32.5 344.76,1.4 0,0 4.13,-46.5 4.48,-58.7" /><path
         id="path668"
         style="fill:#a77860;fill-opacity:1;fill-rule:nonzero;stroke:none"
         d="m 8483.38,8276.4 c 0,0 -66.71,0.5 -157.45,59.4 0,0 63.87,-80.1 152.84,-109.5 0,0 5.29,39.9 4.61,50.1" /><path
         id="path670"
         style="fill:#323657;fill-opacity:1;fill-rule:nonzero;stroke:none"
         d="m 9094.42,3675.4 c -73.46,1.4 -281.72,12.1 -397.39,0 -115.68,-12.3 -160.58,5.4 -152.45,88.4 0.42,4.6 0.96,9.1 1.58,13.8 27.87,19.3 228.49,7.6 347.1,-7.8 118.6,-15.4 196.19,7.8 196.19,7.8 h 0.04 c 51.76,-17.6 139.3,-20 151.95,-47.7 13.6,-30 -73.52,-55.9 -147.02,-54.5" /><path
         id="path672"
         style="fill:#323657;fill-opacity:1;fill-rule:nonzero;stroke:none"
         d="m 8480.42,3858.5 c -0.11,-36.1 -0.86,-57.3 -103.47,-58.7 -102.61,-1.4 -201.4,130.2 -270.4,222.8 -69.03,92.6 -158.84,136.7 -102.38,199.4 6.95,7.7 14.27,15.6 21.82,23.4 3.17,-2.8 135.88,-122.7 178.19,-206.4 70.36,-139.1 145.67,-104.7 148.98,-105.3 l 0.08,-0.1 c 48.61,-23.5 127.18,-67.2 127.18,-75.1" /><path
         id="path674"
         style="fill:#323657;fill-opacity:1;fill-rule:nonzero;stroke:none"
         d="m 8211.98,8062 c -16.79,42.7 -152.26,107.4 -267.64,40.7 -115.38,-66.7 -203.93,-139.7 -271.49,-169 -67.55,-29.3 -305.09,-208.9 -329.97,-251.4 -21.99,-37.6 -37.65,-61.7 59.4,-123.6 99.14,-63.4 488.38,-241.6 488.38,-241.6 l 87.11,104.7 c 0,0 -104.3,66.5 -181.47,116.1 -76.82,49.4 -47.72,34.8 -135.29,82.7 0,0 145.77,88.4 201.04,107.6 55.27,19.2 425.45,141.6 349.93,333.8" /><path
         id="path676"
         style="fill:#ffffff;fill-opacity:1;fill-rule:nonzero;stroke:none"
         d="m 3192.32,12641.1 c 0,0 -78.07,143.3 -122.47,194.9 -44.41,51.5 -191.95,90.2 -171.91,156.1 20.06,65.9 217.75,37.3 272.18,-27.2 54.44,-64.5 220.61,-87.4 226.34,-114.6 5.73,-27.2 -57.71,-176.2 -93.32,-200.5 -35.61,-24.4 -110.82,-8.7 -110.82,-8.7" /><path
         id="path678"
         style="fill:#ffffff;fill-opacity:1;fill-rule:nonzero;stroke:none"
         d="m 2860.49,12519.8 c 0,0 -127.16,100.8 -188.4,130.5 -61.23,29.7 -212,6.6 -219.76,75 -7.76,68.5 185.05,120.7 260.6,83.1 75.56,-37.5 237.16,7.4 253.23,-15.3 16.07,-22.7 17.01,-184.6 -6,-221.1 -23.02,-36.5 -99.67,-52.2 -99.67,-52.2" /><path
         id="path680"
         style="fill:#eea886;fill-opacity:1;fill-rule:nonzero;stroke:none"
         d="m 3142.91,12257.3 c 0,0 55.5,379.6 53,445.5 -0.72,18.7 114.24,11.8 108.87,-24.4 -11.7,-78.7 41.36,-383.9 32.14,-439.8 -9.22,-55.8 -198.75,-16.5 -194.01,18.7" /><path
         id="path682"
         style="fill:#eea886;fill-opacity:1;fill-rule:nonzero;stroke:none"
         d="m 2968.96,12148.1 c 0,0 -104.03,368.7 -128.27,430 -10.78,27.2 95.22,69.5 109.59,20.8 22.56,-76.3 190.41,-335.9 204.13,-390.8 13.72,-55 -175.82,-94.1 -185.45,-60" /><path
         id="path684"
         style="fill:#323657;fill-opacity:1;fill-rule:nonzero;stroke:none"
         d="m 3041.2,11891.9 c 0,0 -111.74,376.8 -128.93,416.9 l 176.2,108.9 c 0,0 81.65,-240.7 93.11,-300.8 11.46,-60.2 -140.38,-225 -140.38,-225" /><path
         id="path686"
         style="fill:#2e334d;fill-opacity:1;fill-rule:nonzero;stroke:none"
         d="m 6160.09,12887.4 c 0,0 -170.15,-43.1 -251.1,-171.7 -80.95,-128.7 -150.92,-276.9 -303.04,-344.1 -152.11,-67.3 -153.09,-240.5 -141.25,-267.2 11.85,-26.7 479.15,-552 581.12,-572.3 101.96,-20.3 292.87,-6.2 272.45,128.8 -20.43,134.9 -220.49,425.3 -108.2,571.8 112.3,146.4 140.61,281.4 140.61,281.4 l -190.59,373.3" /><path
         id="path688"
         style="fill:#eea886;fill-opacity:1;fill-rule:nonzero;stroke:none"
         d="m 6130.42,12259.1 c 0,0 -5,1.7 -13.31,2.5 -9.65,0.9 -23.77,0.6 -39.79,-4.8 -3.99,-1.4 -9.32,-4.1 -15.56,-7.8 -40.44,-23.8 -136.13,-88.4 -149.05,-90 -14.93,-1.8 -2.32,221.4 -2.32,221.4 0,0 50.94,90.2 57.35,149.5 6.41,59.3 162.68,-270.8 162.68,-270.8" /><path
         id="path690"
         style="fill:#323657;fill-opacity:1;fill-rule:nonzero;stroke:none"
         d="m 4933.52,12025.9 c 0,0 -186.94,131.1 -406.11,90.2 -219.17,-40.8 -242.81,-143.2 -318.01,-147.9 -75.21,-4.6 -326.61,16.9 -532.89,-43.3 -206.28,-60.2 -380.33,-66.6 -403.97,-49.4 -23.63,17.2 128.93,361 128.93,408.2 l -255.7,66.7 c 0,0 -73.06,-305.2 -101.71,-373.9 -30.63,-73.6 -89.52,-212 -5.73,-332.4 83.8,-120.3 318.02,-66.1 459.83,-90.3 141.82,-24.3 776.58,-8.7 887.43,-2.8 120.33,6.5 483.47,23.7 483.47,23.7 l 64.46,451.2" /><path
         id="path692"
         style="fill:#eea886;fill-opacity:1;fill-rule:nonzero;stroke:none"
         d="m 6468.89,12705.3 c 0,0 11.93,-184.7 -29.07,-240.1 -16.4,-22.1 -27.54,-34.2 -35.02,-40.7 -10.5,-9.2 -18.66,-20.7 -23.35,-33.9 -12.67,-35.5 -20.46,-85.5 -30.55,-96.2 -11,-11.6 -42.9,18 -54.45,18.1 -11.54,0.1 -124.03,-97 -150.93,-77.2 -26.89,19.9 -191.02,186.4 -177.22,300.6 13.79,114.2 64.15,284.7 248.93,283.6 184.79,-1 237.53,-68.3 251.66,-114.2" /><path
         id="path694"
         style="fill:#5a954b;fill-opacity:1;fill-rule:nonzero;stroke:none"
         d="m 5910.49,11823.9 c -3.54,-7.6 -71.49,-116.1 -145.92,-179 -30.9,-26.2 -62.9,-44.5 -91.88,-44.5 -8.85,0 -17.48,-0.1 -25.87,-0.3 -85.41,-2.3 -151.03,-15.4 -266.36,-21.1 -119.79,-6 -410.41,10.7 -419,10.7 -8.6,0 -92.4,-15 -92.4,-15 -30.08,36.5 49.42,449.1 64.46,451.2 15.04,2.2 111.74,-34.4 204.13,-19.3 92.4,15 128.93,23.6 266.45,184.8 137.52,161.1 275.04,201.9 333.05,189 58.02,-12.9 173.34,0 173.34,0 0,0 5.01,-545.7 0,-556.5" /><path
         id="path696"
         style="fill:#ebe2d8;fill-opacity:1;fill-rule:nonzero;stroke:none"
         d="m 7279.95,11462.9 h -713.38 v -77.3 h 713.38 v 77.3" /><path
         id="path698"
         style="fill:#ebe2d8;fill-opacity:1;fill-rule:nonzero;stroke:none"
         d="m 7452.85,12138.8 -246.2,-728.7 73.56,-24.1 246.01,728.3 -73.37,24.5" /><path
         id="path700"
         style="fill:#2e334d;fill-opacity:1;fill-rule:nonzero;stroke:none"
         d="m 6391.25,12573 c 0,0 34.44,-89.2 52.68,-101.5 0,0 66.46,70.3 23.78,243.7 -42.69,173.5 -203.67,189.8 -307.62,172.2 -129.39,-22 -259.64,-459.7 -252.92,-502.4 6.72,-42.6 151.68,226.3 278.69,204.6 127.01,-21.6 128.03,-28.7 205.39,-16.6" /><path
         id="path702"
         style="fill:#a77860;fill-opacity:1;fill-rule:nonzero;stroke:none"
         d="m 6117.11,12261.6 c -9.65,0.9 -23.35,-0.3 -39.36,-5.7 -4,-1.4 -9.75,-3.2 -15.99,-6.9 -29.72,46.4 -57.23,156.3 -58.16,160 19.81,-60.2 113.51,-147.4 113.51,-147.4" /><path
         id="path704"
         style="fill:#2b4724;fill-opacity:1;fill-rule:nonzero;stroke:none"
         d="m 5764.57,11644.9 c -30.9,-26.2 -62.9,-44.5 -91.88,-44.5 -8.85,0 -17.48,-0.1 -25.87,-0.3 l 35.18,342 82.57,-297.2" /><path
         id="path706"
         style="fill:#eea886;fill-opacity:1;fill-rule:nonzero;stroke:none"
         d="m 5918.85,11975.9 c 0,0 10.6,-269.4 15.99,-314.6 5.37,-45 -0.51,-71.6 48.14,-75.9 48.14,-4.2 385.9,-43 489.04,-60.2 103.14,-17.1 142,23.2 160.62,29 18.62,5.9 135.53,9.5 170.28,-2.1 36.54,-12.1 83.81,-40.8 113.89,-45.1 30.08,-4.3 71.62,-21.2 68.76,-35.5 -2.86,-14.3 -69.48,-12.2 -89.53,-12.2 -20.06,0 -340.58,8.6 -356.33,0.8 -20.03,-10.1 -278.98,-23 -326.25,-23 -47.27,0 -422.59,-29.3 -455.54,16.5 -32.94,45.8 -75.21,518.6 -70.9,540.1 4.29,21.5 208.5,32.5 231.83,-17.8" /><path
         id="path708"
         style="fill:#5a954b;fill-opacity:1;fill-rule:nonzero;stroke:none"
         d="m 5935.55,11970 c 0,0 12.89,359 -103.86,354.6 -147.61,-5.7 -169.74,-186.3 -149.69,-382.5 0,0 220.6,-2.2 253.55,27.9" /></g></g></svg>